STARTFONT 2.1
COMMENT This font was automatically resized by bdfresize-1.4
COMMENT   mag_x = 3/2, mag_y = 3/2, blackness = 4
COMMENT ======================================================================
COMMENT Font Status: Complete.
COMMENT              The font name is subject to change later.
COMMENT ***********
COMMENT Ethiomx16f-Uni.bdf is a hand drawn font with origins back to gez.asc
COMMENT ***********
COMMENT This Is The Unicode Ordered & Addressed Ethiopic Font Based On UTC-95-055A.
COMMENT Extension candidates are added in 4 rows at the end in a compressed 16
COMMENT column format. SERA character names are given for alphabetic elements;
COMMENT punctuations and numbers are named descriptively.
COMMENT Unicode encoding begins at hex 1200 / dec 4608
COMMENT ***********
COMMENT Another Fine Admas Product : fisseha@cig.mot.com
COMMENT Available at ftp://ftp.cs.indiana.edu/pub/fidel/fonts/ethiomx16-uni.bdf
COMMENT See also ftp://ftp.cs.indiana.edu/pub/fidel/info/unicode.ps
COMMENT ======================================================================
FONT -Admas-Ethiomx16f-Medium-R-Normal--24-225-100-100-M-240-Ethiopic-Unicode
SIZE 24 100 100
FONTBOUNDINGBOX 24 29 0 -3
STARTPROPERTIES 3
FONT_ASCENT 21
FONT_DESCENT 3
DEFAULT_CHAR 4960
ENDPROPERTIES
CHARS 412
STARTCHAR he
ENCODING 4608
SWIDTH 144 0
DWIDTH 24 0
BBX 24 24 0 -3
BITMAP
000000
000000
000000
000000
003E00
003E00
1C0E00
1C0E00
1C0E00
1C0E00
1C0E00
1C0E00
1C0E00
1C0E00
1C0E00
1C3C00
1C3C00
1C3C00
0FF000
0FF000
03E000
000000
000000
000000
ENDCHAR
STARTCHAR hu
ENCODING 4609
SWIDTH 144 0
DWIDTH 24 0
BBX 24 24 0 -3
BITMAP
000000
000000
000000
000000
003E00
003E00
1C0E00
1C0E00
1C0E00
1C0E00
1C0FF8
1C0FF8
1C0E38
1C0E38
1C0E00
1C3C00
1C3C00
1C3C00
0FF000
0FF000
03E000
000000
000000
000000
ENDCHAR
STARTCHAR hi
ENCODING 4610
SWIDTH 144 0
DWIDTH 24 0
BBX 24 24 0 -3
BITMAP
000000
000000
000000
01E780
03E780
038780
038780
038780
038780
038780
03FF80
01FE00
007E00
007E00
000E00
003C00
007C00
007000
0071C0
007FC0
007FC0
000000
000000
000000
ENDCHAR
STARTCHAR ha
ENCODING 4611
SWIDTH 144 0
DWIDTH 24 0
BBX 24 24 0 -3
BITMAP
000000
000000
000000
01E780
03E780
038780
038780
038780
038780
038780
03FF80
01FE00
007E00
007E00
000E00
003C00
007C00
007000
007000
007000
007000
000000
000000
000000
ENDCHAR
STARTCHAR hE
ENCODING 4612
SWIDTH 144 0
DWIDTH 24 0
BBX 24 24 0 -3
BITMAP
000000
000000
000000
01E780
03E780
038780
038780
038780
038780
038780
03FF80
01FE00
007E00
007E00
000E00
003E00
007E00
007600
007180
007F80
007F80
000000
000000
000000
ENDCHAR
STARTCHAR h
ENCODING 4613
SWIDTH 144 0
DWIDTH 24 0
BBX 24 24 0 -3
BITMAP
000000
000000
000000
000000
0F07C0
0F07C0
0F01C0
0F81C0
0F81C0
03E1C0
03E1C0
01E1C0
0381C0
0381C0
0381C0
0381C0
0387C0
038780
01FF80
01FF80
007E00
000000
000000
000000
ENDCHAR
STARTCHAR ho
ENCODING 4614
SWIDTH 144 0
DWIDTH 24 0
BBX 24 24 0 -3
BITMAP
000000
000000
000000
000000
000FC0
000FC0
1C0E30
1C0EF0
1C0EF0
1C0F80
1C0F80
1C0E00
1C0E00
1C0E00
1C0E00
1C3C00
1C3C00
1C3C00
0FF000
0FF000
03E000
000000
000000
000000
ENDCHAR
STARTCHAR le
ENCODING 4616
SWIDTH 144 0
DWIDTH 24 0
BBX 24 24 0 -3
BITMAP
000000
000000
000000
007000
007000
007000
007000
01FC00
01FC00
01FE00
03FF80
038F80
038780
038780
038780
038780
038780
038780
038780
038780
038780
000000
000000
000000
ENDCHAR
STARTCHAR lu
ENCODING 4617
SWIDTH 144 0
DWIDTH 24 0
BBX 24 24 0 -3
BITMAP
000000
000000
000000
038000
038000
038000
038000
0FE000
0FE000
0FF000
1FFC00
1C7C00
1C3C00
1C3C00
1C3C00
1C3FF0
1C3FF0
1C3CF0
1C3C00
1C3C00
1C3C00
000000
000000
000000
ENDCHAR
STARTCHAR li
ENCODING 4618
SWIDTH 144 0
DWIDTH 24 0
BBX 24 24 0 -3
BITMAP
000000
000000
000000
038000
038000
038000
038000
0FE000
0FE000
0FF000
1FFC00
1C7C00
1C3C00
1C3C00
1C3C00
1C3C00
1C3C00
1C3C00
1C3CF0
1C3FF0
1C3FF0
000000
000000
000000
ENDCHAR
STARTCHAR la
ENCODING 4619
SWIDTH 144 0
DWIDTH 24 0
BBX 24 24 0 -3
BITMAP
000000
000000
000000
007000
007000
007000
007000
01FC00
01FC00
01FE00
03FF80
038F80
038780
038780
038780
038780
038780
000780
000780
000780
000780
000000
000000
000000
ENDCHAR
STARTCHAR lE
ENCODING 4620
SWIDTH 144 0
DWIDTH 24 0
BBX 24 24 0 -3
BITMAP
000000
000000
000000
038000
038000
038000
038000
0FE000
0FE000
0FF000
1FFC00
1C7C00
1C3C00
1C3C00
1C3C00
1C3C00
1C3FC0
1C3FC0
1C3CF0
1C3FF0
1C3FC0
000000
000000
000000
ENDCHAR
STARTCHAR l
ENCODING 4621
SWIDTH 144 0
DWIDTH 24 0
BBX 24 24 0 -3
BITMAP
000000
000000
000000
007000
007000
007000
007000
01FC00
01FC00
01FE00
03FF80
038F80
038780
0F8780
0F0780
0F0780
0FE780
0FE780
0F7780
0FF780
0FE780
000000
000000
000000
ENDCHAR
STARTCHAR lo
ENCODING 4622
SWIDTH 144 0
DWIDTH 24 0
BBX 24 24 0 -3
BITMAP
000000
000000
000000
038000
038000
038000
038000
0FE000
0FE000
0FF000
1FFC00
1C7C00
1C3C00
1C3FF0
1C3FF0
1C3DB8
1C3DF8
1C3DF0
1C3C00
1C3C00
1C3C00
000000
000000
000000
ENDCHAR
STARTCHAR lWa
ENCODING 4623
SWIDTH 144 0
DWIDTH 24 0
BBX 24 24 0 -3
BITMAP
000000
000000
000000
007000
007000
007000
007000
01FC00
01FC00
01FE00
03FF80
038F80
038780
038780
038780
038780
038780
000780
000780
000780
000780
007FF8
01FFFE
01F03E
ENDCHAR
STARTCHAR He
ENCODING 4624
SWIDTH 144 0
DWIDTH 24 0
BBX 24 24 0 -3
BITMAP
000000
000000
000000
003C00
003C00
003C00
003C00
003C00
003C00
003C00
01FF80
01FF80
03BDC0
03BDC0
03BDC0
0F3CF0
0F3CF0
0F3CF0
0F3CF0
0F3CF0
0F3CF0
000000
000000
000000
ENDCHAR
STARTCHAR Hu
ENCODING 4625
SWIDTH 144 0
DWIDTH 24 0
BBX 24 24 0 -3
BITMAP
000000
000000
000000
01E000
01E000
01E000
01E000
01E000
01E000
01E000
0FFC00
0FFC00
1DEE00
1DEE00
1DEE00
79E7FE
79E7FE
79E79E
79E780
79E780
79E780
000000
000000
000000
ENDCHAR
STARTCHAR Hi
ENCODING 4626
SWIDTH 144 0
DWIDTH 24 0
BBX 24 24 0 -3
BITMAP
000000
000000
000000
01E000
01E000
01E000
01E000
01E000
01E000
01E000
0FFC00
0FFC00
1DEE00
1DEE00
1DEE00
79E780
79E780
79E780
79E79E
79E7FE
79E7FE
000000
000000
000000
ENDCHAR
STARTCHAR Ha
ENCODING 4627
SWIDTH 144 0
DWIDTH 24 0
BBX 24 24 0 -3
BITMAP
000000
000000
000000
003C00
003C00
003C00
003C00
003C00
003C00
003C00
01FF80
01FF80
03BDC0
03BDC0
03BDC0
0F3CF0
0F3CF0
0000F0
0000F0
0000F0
0000F0
000000
000000
000000
ENDCHAR
STARTCHAR HE
ENCODING 4628
SWIDTH 144 0
DWIDTH 24 0
BBX 24 24 0 -3
BITMAP
000000
000000
000000
01E000
01E000
01E000
01E000
01E000
01E000
01E000
0FFC00
0FFC00
1DEE00
1DEE00
1DEE00
79E600
79E7F0
79E7F0
79E638
79E7F8
79E7F0
000000
000000
000000
ENDCHAR
STARTCHAR H
ENCODING 4629
SWIDTH 144 0
DWIDTH 24 0
BBX 24 24 0 -3
BITMAP
000000
000000
000000
01E000
01E000
01E000
01E000
01FC00
01FC00
003C00
01FF80
01FF80
03BDC0
03BDC0
03BDC0
0F3CF0
0F3CF0
0F3CF0
0F3CF0
0F3CF0
0F3CF0
000000
000000
000000
ENDCHAR
STARTCHAR Ho
ENCODING 4630
SWIDTH 144 0
DWIDTH 24 0
BBX 24 24 0 -3
BITMAP
000000
000000
000000
003C00
003C00
003C00
003C00
003C00
003C00
003C00
01FF80
01FF80
03BDC0
03BDC0
03BDC0
0F3CF0
0F3CF0
0F0000
0F0000
0F0000
0F0000
000000
000000
000000
ENDCHAR
STARTCHAR HWa
ENCODING 4631
SWIDTH 144 0
DWIDTH 24 0
BBX 24 24 0 -3
BITMAP
000000
007000
007000
007000
007000
007000
007000
007000
007000
03FE00
0FFF80
0F7780
0F7780
1F77C0
1C71C0
0001C0
0001C0
0001C0
0001C0
003FFE
003FFE
007C1F
007C1F
000000
ENDCHAR
STARTCHAR me
ENCODING 4632
SWIDTH 144 0
DWIDTH 24 0
BBX 24 24 0 -3
BITMAP
000000
000000
000000
000000
000000
000000
000000
03FFF8
03FFF8
0FFFF8
0FFFF8
0C3198
1C3798
1C7798
187618
19E638
1FE7F8
1F87F0
1F87C0
1F87C0
000000
000000
000000
000000
ENDCHAR
STARTCHAR mu
ENCODING 4633
SWIDTH 144 0
DWIDTH 24 0
BBX 24 24 0 -3
BITMAP
000000
000000
000000
000000
000000
000000
000000
1FFFC0
1FFFC0
7FFFC0
7FFFC0
618CC0
E1BCFE
E3BCFE
C3B0C6
CF31C6
FF3FC6
FC3F80
FC3E00
FC3E00
000000
000000
000000
000000
ENDCHAR
STARTCHAR mi
ENCODING 4634
SWIDTH 144 0
DWIDTH 24 0
BBX 24 24 0 -3
BITMAP
000000
000000
000000
0FFFF0
1FFFF0
1FFFF0
786C30
786C30
606C30
61B030
7FBFF0
7FBFF0
1F0FF0
1F0FF0
0000C0
0000C0
0001C0
000180
00019E
0001FE
0001FE
000000
000000
000000
ENDCHAR
STARTCHAR ma
ENCODING 4635
SWIDTH 144 0
DWIDTH 24 0
BBX 24 24 0 -3
BITMAP
000000
000000
000000
03FFF8
0FFFF8
0FFFF8
1C3618
1C3618
183618
186C18
1FEFF8
1FEFF8
0F87F8
0F87F8
000030
000030
0000F0
0000C0
0000C0
0000C0
0000C0
000000
000000
000000
ENDCHAR
STARTCHAR mE
ENCODING 4636
SWIDTH 144 0
DWIDTH 24 0
BBX 24 24 0 -3
BITMAP
000000
000000
000000
0FFFF0
1FFFF0
1FFFF0
786C30
786C30
606C30
61B030
7FBFF0
7FBFF0
1F0FF0
1F0FF0
0000C0
0000C0
0001F8
0001F8
00019E
0001FE
0001F8
000000
000000
000000
ENDCHAR
STARTCHAR m
ENCODING 4637
SWIDTH 144 0
DWIDTH 24 0
BBX 24 24 0 -3
BITMAP
000000
000000
000000
0FFFC0
0FFFF0
0FFFF0
1C6C30
1C6C30
186C30
186C30
186FF0
186FF0
1FE7C0
1FE7C0
0FE000
006000
01E000
01E000
038000
0F8000
0F0000
000000
000000
000000
ENDCHAR
STARTCHAR mo
ENCODING 4638
SWIDTH 144 0
DWIDTH 24 0
BBX 24 24 0 -3
BITMAP
000000
000000
000000
0FFFC0
0FFFF0
0FFFF0
1C6C30
1C6C30
186C30
186C30
186FF0
186FF0
1FE7C0
1FE7C0
0FE000
006000
006000
006000
006000
007000
007000
000000
000000
000000
ENDCHAR
STARTCHAR mWa
ENCODING 4639
SWIDTH 144 0
DWIDTH 24 0
BBX 24 24 0 -3
BITMAP
000000
000000
000000
0FFFF0
1FFFF0
1FFFF0
786C30
786C30
606C30
61B030
7FBFF0
7FBFF0
1F0FF0
1F0FF0
0000C0
0000C0
0001C0
0001C0
000180
000180
000180
003FF0
007FF8
007038
ENDCHAR
STARTCHAR `se/s2e
ENCODING 4640
SWIDTH 144 0
DWIDTH 24 0
BBX 24 24 0 -3
BITMAP
000000
000000
000000
000000
000000
000000
033CF0
0F3CF0
0F3CF0
0F3CF0
0F3CF0
0F3CF0
0F3CF0
0F3DF0
0F3DC0
0F3FC0
0FBFC0
03BC00
01FC00
01FC00
000000
000000
000000
000000
ENDCHAR
STARTCHAR `su/s2u
ENCODING 4641
SWIDTH 144 0
DWIDTH 24 0
BBX 24 24 0 -3
BITMAP
000000
000000
000000
000000
000000
000000
19EE00
79EE00
79EE00
79EFF8
79EFF8
79EE38
79EE00
79EE00
79EE00
79FE00
7DFE00
1DE000
0FE000
0FE000
000000
000000
000000
000000
ENDCHAR
STARTCHAR `si/s2i
ENCODING 4642
SWIDTH 144 0
DWIDTH 24 0
BBX 24 24 0 -3
BITMAP
000000
000000
000000
79E600
79E780
79E780
79E780
79E780
79E780
79E780
7DEF80
7DEF80
1FFF80
1FFF80
000780
000780
000780
000780
00079E
0007FE
0007FE
000000
000000
000000
ENDCHAR
STARTCHAR `sa/s2a
ENCODING 4643
SWIDTH 144 0
DWIDTH 24 0
BBX 24 24 0 -3
BITMAP
000000
000000
000000
0F3CC0
0F3CF0
0F3CF0
0F3CF0
0F3CF0
0F3CF0
0F3CF0
0FBDF0
0FBDF0
03FFF0
03FFF0
0000F0
0000F0
0000F0
0000F0
0000F0
0000F0
0000F0
000000
000000
000000
ENDCHAR
STARTCHAR `sE/s2E
ENCODING 4644
SWIDTH 144 0
DWIDTH 24 0
BBX 24 24 0 -3
BITMAP
000000
000000
000000
1C7180
1C71C0
1C71C0
1C71C0
1C71C0
1C71C0
1C71C0
1F77C0
1F77C0
0FFFC0
0FFFC0
0001C0
0001C0
0001F0
0001F0
000798
0007F8
0007F0
000000
000000
000000
ENDCHAR
STARTCHAR `s/s2
ENCODING 4645
SWIDTH 144 0
DWIDTH 24 0
BBX 24 24 0 -3
BITMAP
000000
000000
000000
0F3CC0
0F3CF0
0F3CF0
0F3CF0
0F3CF0
0F3CF0
0F3CF0
0FBDF0
0FBDF0
0FFFC0
0FFFC0
0F8000
0F0000
0F0000
0F0000
0F0000
0F0000
0F0000
000000
000000
000000
ENDCHAR
STARTCHAR `so/s2o
ENCODING 4646
SWIDTH 144 0
DWIDTH 24 0
BBX 24 24 0 -3
BITMAP
000000
000000
000000
0F3CF0
0F3CF0
0F3CF0
0F3CF0
0F3CF0
0F3CF0
0F3CF0
0FBDF0
0FBDF0
03FFC0
03FFC0
007C00
007000
01F000
01F000
03E000
03E000
038000
000000
000000
000000
ENDCHAR
STARTCHAR `sWa/s2Wa
ENCODING 4647
SWIDTH 144 0
DWIDTH 24 0
BBX 24 24 0 -3
BITMAP
000000
79E600
79E600
79E780
79E780
79E780
79E780
79E780
79E780
7DEF80
7FFF80
1FFF80
000780
000780
000780
000780
000780
000780
000780
007FF8
007FF8
01F03E
01F03E
000000
ENDCHAR
STARTCHAR re
ENCODING 4648
SWIDTH 144 0
DWIDTH 24 0
BBX 24 24 0 -3
BITMAP
000000
000000
000000
003C00
003C00
003C00
003C00
007C00
007000
01F000
03F000
03E000
0F8000
0F8000
0F0000
0F0000
0F8780
0F8780
03FF80
03FF80
01FF80
000000
000000
000000
ENDCHAR
STARTCHAR ru
ENCODING 4649
SWIDTH 144 0
DWIDTH 24 0
BBX 24 24 0 -3
BITMAP
000000
000000
000000
007000
007000
007000
01F000
03F000
03E000
0F8000
0F8000
0F0000
1C0000
1F0000
1F0000
0FFFC0
0FFFC0
03FFC0
003C00
003C00
003C00
000000
000000
000000
ENDCHAR
STARTCHAR ri
ENCODING 4650
SWIDTH 144 0
DWIDTH 24 0
BBX 24 24 0 -3
BITMAP
000000
000000
000000
003C00
003C00
003C00
003C00
007C00
007000
01F000
03F000
03E000
0F8000
0F8780
0F0780
0F07C0
0F87C0
0F81C0
03FF80
03FF80
01FE00
000000
000000
000000
ENDCHAR
STARTCHAR ra
ENCODING 4651
SWIDTH 144 0
DWIDTH 24 0
BBX 24 24 0 -3
BITMAP
000000
000000
000000
007000
007000
007000
007000
01F000
01E000
03E000
0FE000
0F8000
1F0000
1F07F0
1C07F0
1C0FF0
1F3FF0
1F3CF0
0FFC00
0FFC00
03F000
000000
000000
000000
ENDCHAR
STARTCHAR rE
ENCODING 4652
SWIDTH 144 0
DWIDTH 24 0
BBX 24 24 0 -3
BITMAP
000000
000000
000000
003C00
003C00
003C00
003C00
007C00
007000
01F000
03F000
03E000
0F8000
0F8000
0F0000
0F0000
0F8FC0
0F8FC0
03FCF0
03FFF0
01FFC0
000000
000000
000000
ENDCHAR
STARTCHAR r
ENCODING 4653
SWIDTH 144 0
DWIDTH 24 0
BBX 24 24 0 -3
BITMAP
000000
000000
000000
000000
01FF80
01FF80
03FF80
0FFF80
0F0780
0F0000
0F0000
0F0000
0F0000
0F0000
0F0000
0F0000
0F0780
0F0780
0FFF80
0FFF80
03FE00
000000
000000
000000
ENDCHAR
STARTCHAR ro
ENCODING 4654
SWIDTH 144 0
DWIDTH 24 0
BBX 24 24 0 -3
BITMAP
000000
000000
000000
000000
01FFC0
01FFC0
03FCF0
0FFFF0
0F0FC0
0F0000
0F0000
0F0000
0F0000
0F0000
0F0000
0F0000
0F0780
0F0780
0FFF80
0FFF80
03FE00
000000
000000
000000
ENDCHAR
STARTCHAR rWa
ENCODING 4655
SWIDTH 144 0
DWIDTH 24 0
BBX 24 24 0 -3
BITMAP
000000
000000
000000
1C01C0
1F8FC0
0F8F80
007000
007000
007000
01E000
03E000
03E000
0F8000
1F8000
1F0000
1C07F0
1C0FF0
1C0FF0
1F3CF0
1FFCF0
0FFC00
03F000
03F000
000000
ENDCHAR
STARTCHAR se
ENCODING 4656
SWIDTH 144 0
DWIDTH 24 0
BBX 24 24 0 -3
BITMAP
000000
000000
000000
003000
003000
003000
007C00
01FE00
01FE00
038780
038780
038780
038780
038780
038780
038780
038780
038780
038780
038780
038780
000000
000000
000000
ENDCHAR
STARTCHAR su
ENCODING 4657
SWIDTH 144 0
DWIDTH 24 0
BBX 24 24 0 -3
BITMAP
000000
000000
000000
018000
018000
018000
03E000
0FF000
0FF000
1C3C00
1C3C00
1C3C00
1C3C00
1C3FF0
1C3FF0
1C3CF0
1C3CF0
1C3C00
1C3C00
1C3C00
1C3C00
000000
000000
000000
ENDCHAR
STARTCHAR si
ENCODING 4658
SWIDTH 144 0
DWIDTH 24 0
BBX 24 24 0 -3
BITMAP
000000
000000
000000
018000
018000
018000
03E000
0FF000
0FF000
1C3C00
1C3C00
1C3C00
1C3C00
1C3C00
1C3C00
1C3C00
1C3C00
1C3C00
1C3CF0
1C3FF0
1C3FF0
000000
000000
000000
ENDCHAR
STARTCHAR sa
ENCODING 4659
SWIDTH 144 0
DWIDTH 24 0
BBX 24 24 0 -3
BITMAP
000000
000000
000000
003000
003000
003000
007C00
01FE00
01FE00
038780
038780
038780
038780
038780
038780
038780
038780
000780
000780
000780
000780
000000
000000
000000
ENDCHAR
STARTCHAR sE
ENCODING 4660
SWIDTH 144 0
DWIDTH 24 0
BBX 24 24 0 -3
BITMAP
000000
000000
000000
006000
006000
006000
01F000
03FC00
03FC00
0F0E00
0F0E00
0F0E00
0F0E00
0F0E00
0F0E00
0F0F80
0F0FC0
0F0EC0
0F0E30
0F0FF0
0F0FF0
000000
000000
000000
ENDCHAR
STARTCHAR s
ENCODING 4661
SWIDTH 144 0
DWIDTH 24 0
BBX 24 24 0 -3
BITMAP
000000
000000
000000
000000
007000
007000
003C00
003E00
003E00
007F80
01FFC0
01E1C0
01E1C0
01E1C0
01E1C0
01E1C0
01E1C0
01E1C0
01E1C0
01E1C0
01E1C0
000000
000000
000000
ENDCHAR
STARTCHAR so
ENCODING 4662
SWIDTH 144 0
DWIDTH 24 0
BBX 24 24 0 -3
BITMAP
000000
000000
000000
003000
003000
003000
007C00
01FE00
01FE00
038780
038780
038780
038780
038780
038780
038780
038780
038000
038000
038000
038000
000000
000000
000000
ENDCHAR
STARTCHAR sWa
ENCODING 4663
SWIDTH 144 0
DWIDTH 24 0
BBX 24 24 0 -3
BITMAP
000000
000000
000000
003000
003000
003000
007C00
01FE00
01FE00
038780
038780
038780
038780
038780
038780
038780
038780
000780
000780
000780
000780
003FF0
007FF8
007038
ENDCHAR
STARTCHAR xe
ENCODING 4664
SWIDTH 144 0
DWIDTH 24 0
BBX 24 24 0 -3
BITMAP
000000
000000
000000
1C0780
1FFF80
0FFE00
006000
01F000
01F000
03FC00
0FFE00
0F0E00
0F0E00
0F0E00
0F0E00
0F0E00
0F0E00
0F0E00
0F0E00
0F0E00
0F0E00
000000
000000
000000
ENDCHAR
STARTCHAR xu
ENCODING 4665
SWIDTH 144 0
DWIDTH 24 0
BBX 24 24 0 -3
BITMAP
000000
000000
000000
1C0780
1FFF80
0FFE00
006000
01F000
01F000
03FC00
0FFE00
0F0E00
0F0E00
0F0FF8
0F0FF8
0F0E38
0F0E38
0F0E38
0F0E00
0F0E00
0F0E00
000000
000000
000000
ENDCHAR
STARTCHAR xi
ENCODING 4666
SWIDTH 144 0
DWIDTH 24 0
BBX 24 24 0 -3
BITMAP
000000
000000
000000
1C0780
1FFF80
0FFE00
006000
01F000
01F000
03FC00
0FFE00
0F0E00
0F0E00
0F0E00
0F0E00
0F0E00
0F0E00
0F0E00
0F0E38
0F0FF8
0F0FF8
000000
000000
000000
ENDCHAR
STARTCHAR xa
ENCODING 4667
SWIDTH 144 0
DWIDTH 24 0
BBX 24 24 0 -3
BITMAP
000000
000000
000000
0F01C0
0FFFC0
03FF80
003000
007C00
007C00
01FE00
03FF80
038780
038780
038780
038780
038780
038780
000780
000780
000780
000780
000000
000000
000000
ENDCHAR
STARTCHAR xE
ENCODING 4668
SWIDTH 144 0
DWIDTH 24 0
BBX 24 24 0 -3
BITMAP
000000
000000
000000
1C0780
1FFF80
0FFE00
006000
01F000
01F000
03FC00
0FFE00
0F0E00
0F0E00
0F0E00
0F0E00
0F0E00
0F0FF0
0F0FF0
0F0E38
0F0FF8
0F0FF0
000000
000000
000000
ENDCHAR
STARTCHAR x
ENCODING 4669
SWIDTH 144 0
DWIDTH 24 0
BBX 24 24 0 -3
BITMAP
000000
000000
000000
0F0780
0FFF80
03FE00
003C00
003E00
003E00
007F80
007FC0
0071C0
01E1C0
01E1C0
01E1C0
01E1C0
01E1C0
01E1C0
01E1C0
01E1C0
01E1C0
000000
000000
000000
ENDCHAR
STARTCHAR xo
ENCODING 4670
SWIDTH 144 0
DWIDTH 24 0
BBX 24 24 0 -3
BITMAP
000000
000000
000000
0F01C0
0FFFC0
03FF80
003000
007C00
007C00
01FE00
03FF80
038780
038780
038780
038780
038780
038780
038000
038000
038000
038000
000000
000000
000000
ENDCHAR
STARTCHAR xWa
ENCODING 4671
SWIDTH 144 0
DWIDTH 24 0
BBX 24 24 0 -3
BITMAP
000000
000000
000000
1C0780
1FFF80
0FFE00
006000
01F000
01F000
03FC00
0FFE00
0F0E00
0F0E00
0F0E00
0F0E00
0F0E00
0F0E00
0F0E00
000E00
000E00
000E00
007FC0
01FFF0
01E0F0
ENDCHAR
STARTCHAR qe
ENCODING 4672
SWIDTH 144 0
DWIDTH 24 0
BBX 24 24 0 -3
BITMAP
000000
000000
000000
003C00
003C00
003C00
003C00
007FC0
007FC0
03BCF0
0FBCF0
0F3CF0
0F3DC0
0FFFC0
03FE00
003C00
003C00
003C00
003C00
003C00
003C00
000000
000000
000000
ENDCHAR
STARTCHAR qu
ENCODING 4673
SWIDTH 144 0
DWIDTH 24 0
BBX 24 24 0 -3
BITMAP
000000
000000
000000
007000
007000
007000
007000
01FF80
01FF80
0F71C0
1F71C0
1C71C0
1C7780
1FFF80
0FFC00
007000
007FC0
007FC0
0071C0
0071C0
007000
000000
000000
000000
ENDCHAR
STARTCHAR qi
ENCODING 4674
SWIDTH 144 0
DWIDTH 24 0
BBX 24 24 0 -3
BITMAP
000000
000000
000000
007000
007000
007000
007000
01FF80
01FF80
0F71C0
1F71C0
1C71C0
1C7780
1FFF80
0FFC00
007000
007000
007000
0071C0
007FC0
007FC0
000000
000000
000000
ENDCHAR
STARTCHAR qa
ENCODING 4675
SWIDTH 144 0
DWIDTH 24 0
BBX 24 24 0 -3
BITMAP
000000
000000
000000
003C00
003C00
003C00
003C00
007FC0
007FC0
03BCF0
0FBCF0
0F3CF0
0F3DC0
0FFFC0
03FE00
003C00
007C00
007000
01E000
03E000
038000
000000
000000
000000
ENDCHAR
STARTCHAR qE
ENCODING 4676
SWIDTH 144 0
DWIDTH 24 0
BBX 24 24 0 -3
BITMAP
000000
000000
000000
007000
007000
007000
007000
01FF80
01FF80
0F71C0
1F71C0
1C71C0
1C7780
1FFF80
0FFC00
007000
007F80
007F80
0071C0
007FC0
007F80
000000
000000
000000
ENDCHAR
STARTCHAR q
ENCODING 4677
SWIDTH 144 0
DWIDTH 24 0
BBX 24 24 0 -3
BITMAP
000000
000000
000000
01E000
01E000
01E000
01FC00
01FC00
003C00
007FC0
03FFF0
03BCF0
0F3CF0
0F3DF0
0F3DC0
03FE00
03FE00
003C00
003C00
003C00
003C00
000000
000000
000000
ENDCHAR
STARTCHAR qo
ENCODING 4678
SWIDTH 144 0
DWIDTH 24 0
BBX 24 24 0 -3
BITMAP
000000
000000
000000
003E00
007F80
006780
006E00
007E00
007000
01FF80
0FFFC0
0F71C0
1C71C0
1C77C0
1C7780
0FFC00
0FFC00
007000
007000
007000
007000
000000
000000
000000
ENDCHAR
STARTCHAR qWe
ENCODING 4680
SWIDTH 144 0
DWIDTH 24 0
BBX 24 24 0 -3
BITMAP
000000
000000
000000
003C00
003C00
003C00
003C00
007FC0
007FC0
03BCF0
0FBCF0
0F3CF0
0F3DC0
0FFFC0
03FE00
003FF0
003FF8
003DB8
003DF0
003DF0
003C00
000000
000000
000000
ENDCHAR
STARTCHAR qWi
ENCODING 4682
SWIDTH 144 0
DWIDTH 24 0
BBX 24 24 0 -3
BITMAP
000000
000000
000000
01E000
01E000
01E000
01E000
03FE00
03FE00
1DE7B8
7DE7B8
79E7B8
79EFF8
7FFFFF
1FF01F
01E007
01E007
01E000
01E000
01E000
01E000
000000
000000
000000
ENDCHAR
STARTCHAR qWa
ENCODING 4683
SWIDTH 144 0
DWIDTH 24 0
BBX 24 24 0 -3
BITMAP
000000
000000
000000
003C00
003C00
003C00
003C00
007FC0
007FC0
03BCF0
0FBCF0
0F3CF0
0F3DC0
0FFFC0
03FE00
003C00
003C00
003C00
003C00
003C00
003C00
01FF80
03FFC0
0381C0
ENDCHAR
STARTCHAR qWE
ENCODING 4684
SWIDTH 144 0
DWIDTH 24 0
BBX 24 24 0 -3
BITMAP
000000
000000
000000
003C00
003C00
003C00
003C00
007FC0
007FC0
03BCF0
0FBCF0
0F3CF0
0F3DC0
0FFFC0
03FE00
003C00
003C00
003C00
003FC0
003FF0
003CF0
01FFC0
03FFC0
038000
ENDCHAR
STARTCHAR qWu/qW
ENCODING 4685
SWIDTH 144 0
DWIDTH 24 0
BBX 24 24 0 -3
BITMAP
000000
000000
000000
01E000
01E0F0
01E0F0
01E0F0
03FFFE
03FFFE
1DE79E
7DE79E
79E780
79EE00
7FFE00
1FF000
01E000
01E000
01E000
01E000
01E000
01E000
000000
000000
000000
ENDCHAR
STARTCHAR Qe
ENCODING 4688
SWIDTH 144 0
DWIDTH 24 0
BBX 24 24 0 -3
BITMAP
000000
000000
000000
0381C0
03FFC0
01FF80
003C00
003C00
003C00
007FC0
03FFF0
03BCF0
0F3CF0
0F3DF0
0F3DC0
03FE00
03FE00
003C00
003C00
003C00
003C00
000000
000000
000000
ENDCHAR
STARTCHAR Qu
ENCODING 4689
SWIDTH 144 0
DWIDTH 24 0
BBX 24 24 0 -3
BITMAP
000000
000000
000000
0F0780
0FFF80
03FE00
007000
007000
007000
01FF80
0FFFC0
0F71C0
1C71C0
1C77C0
1C7780
0FFC00
0FFC00
007000
007FC0
007FC0
0071C0
000000
000000
000000
ENDCHAR
STARTCHAR Qi
ENCODING 4690
SWIDTH 144 0
DWIDTH 24 0
BBX 24 24 0 -3
BITMAP
000000
000000
000000
0F0780
0FFF80
03FE00
007000
007000
007000
01FF80
0FFFC0
0F71C0
1C71C0
1C77C0
1C7780
0FFC00
0FFC00
007000
0071C0
007FC0
007FC0
000000
000000
000000
ENDCHAR
STARTCHAR Qa
ENCODING 4691
SWIDTH 144 0
DWIDTH 24 0
BBX 24 24 0 -3
BITMAP
000000
000000
000000
0381C0
03FFC0
01FF80
003C00
003C00
003C00
007FC0
03FFF0
03BCF0
0F3CF0
0F3DF0
0F3DC0
03FE00
03FE00
003C00
007000
01F000
01E000
000000
000000
000000
ENDCHAR
STARTCHAR QE
ENCODING 4692
SWIDTH 144 0
DWIDTH 24 0
BBX 24 24 0 -3
BITMAP
000000
000000
000000
0F0780
0FFF80
03FE00
007000
01FF80
01FF80
0F71C0
1F71C0
1C71C0
1C7780
1FFF80
0FFC00
007000
007F80
007F80
0071C0
007FC0
007F80
000000
000000
000000
ENDCHAR
STARTCHAR Q
ENCODING 4693
SWIDTH 144 0
DWIDTH 24 0
BBX 24 24 0 -3
BITMAP
000000
000000
000000
1C0E00
1FFE00
0FFC00
01E000
01FC00
01FC00
003C00
007FC0
007FC0
03BCF0
0FBCF0
0F3CF0
0F3DC0
0FFFC0
03FE00
003C00
003C00
003C00
000000
000000
000000
ENDCHAR
STARTCHAR Qo
ENCODING 4694
SWIDTH 144 0
DWIDTH 24 0
BBX 24 24 0 -3
BITMAP
000000
000000
000000
0380F0
03FFF0
01FFC0
003180
003780
003780
003C00
007FC0
007FC0
03BCF0
0FBCF0
0F3CF0
0F3DC0
0FFFC0
03FE00
003C00
003C00
003C00
000000
000000
000000
ENDCHAR
STARTCHAR QWe
ENCODING 4696
SWIDTH 144 0
DWIDTH 24 0
BBX 24 24 0 -3
BITMAP
000000
000000
000000
0F0780
0FFF80
03FE00
007000
01FF80
01FF80
0F71C0
1F71C0
1C71C0
1C7780
1FFF80
0FFC00
007FC0
007FF0
0076F0
0077C0
0077C0
007000
000000
000000
000000
ENDCHAR
STARTCHAR QWi
ENCODING 4698
SWIDTH 144 0
DWIDTH 24 0
BBX 24 24 0 -3
BITMAP
000000
000000
000000
1C0E00
1FFE00
0FFC00
01E000
01E000
01E000
03FE00
1FFFB8
1DE7B8
79E7B8
79EFF8
79EFF8
1FF01F
1FF01F
01E007
01E000
01E000
01E000
000000
000000
000000
ENDCHAR
STARTCHAR QWa
ENCODING 4699
SWIDTH 144 0
DWIDTH 24 0
BBX 24 24 0 -3
BITMAP
000000
000000
000000
0381C0
03FFC0
01FF80
003C00
003C00
003C00
007FC0
03FFF0
03BCF0
0F3CF0
0F3DF0
0F3DC0
03FE00
03FE00
003C00
003C00
003C00
003C00
01FF80
03FFC0
0381C0
ENDCHAR
STARTCHAR QWE
ENCODING 4700
SWIDTH 144 0
DWIDTH 24 0
BBX 24 24 0 -3
BITMAP
000000
000000
000000
0381C0
03FFC0
01FF80
003C00
003C00
003C00
007FC0
03FFF0
03BCF0
0F3CF0
0F3DF0
0F3DC0
03FE00
03FE00
003C00
003FC0
003FF0
003CF0
01FFC0
03FFC0
038000
ENDCHAR
STARTCHAR QWu/QW
ENCODING 4701
SWIDTH 144 0
DWIDTH 24 0
BBX 24 24 0 -3
BITMAP
000000
000000
000000
1C0E00
1FFE00
0FFC00
01E0F0
01E0F0
01E0F0
03FFFE
1FFFFE
1DE79E
79E780
79EF80
79EE00
1FF000
1FF000
01E000
01E000
01E000
01E000
000000
000000
000000
ENDCHAR
STARTCHAR be
ENCODING 4704
SWIDTH 144 0
DWIDTH 24 0
BBX 24 24 0 -3
BITMAP
000000
000000
000000
000000
007C00
007C00
01FE00
03FF80
038780
038780
038780
038780
038780
038780
038780
038780
038780
038780
038780
038780
038780
000000
000000
000000
ENDCHAR
STARTCHAR bu
ENCODING 4705
SWIDTH 144 0
DWIDTH 24 0
BBX 24 24 0 -3
BITMAP
000000
000000
000000
000000
03E000
03E000
0FF000
1FFC00
1C3C00
1C3C00
1C3C00
1C3C00
1C3FF0
1C3FF0
1C3CF0
1C3CF0
1C3CF0
1C3C00
1C3C00
1C3C00
1C3C00
000000
000000
000000
ENDCHAR
STARTCHAR bi
ENCODING 4706
SWIDTH 144 0
DWIDTH 24 0
BBX 24 24 0 -3
BITMAP
000000
000000
000000
000000
03E000
03E000
0FF000
1FFC00
1C3C00
1C3C00
1C3C00
1C3C00
1C3C00
1C3C00
1C3C00
1C3C00
1C3C00
1C3C00
1C3CF0
1C3FF0
1C3FF0
000000
000000
000000
ENDCHAR
STARTCHAR ba
ENCODING 4707
SWIDTH 144 0
DWIDTH 24 0
BBX 24 24 0 -3
BITMAP
000000
000000
000000
000000
007C00
007C00
01FE00
03FF80
038780
038780
038780
038780
038780
038780
038780
000780
000780
000780
000780
000780
000780
000000
000000
000000
ENDCHAR
STARTCHAR bE
ENCODING 4708
SWIDTH 144 0
DWIDTH 24 0
BBX 24 24 0 -3
BITMAP
000000
000000
000000
000000
01F000
01F000
03FC00
0FFE00
0F0E00
0F0E00
0F0E00
0F0E00
0F0E00
0F0E00
0F0E00
0F0E00
0F0FF0
0F0FF0
0F0E38
0F0FF8
0F0FF0
000000
000000
000000
ENDCHAR
STARTCHAR b
ENCODING 4709
SWIDTH 144 0
DWIDTH 24 0
BBX 24 24 0 -3
BITMAP
000000
000000
000000
000000
000F80
000F80
003FC0
007FF0
0070F0
0070F0
0070F0
0070F0
1FF0F0
1FF0F0
1C70F0
1C70F0
1C70F0
0070F0
0070F0
0070F0
0070F0
000000
000000
000000
ENDCHAR
STARTCHAR bo
ENCODING 4710
SWIDTH 144 0
DWIDTH 24 0
BBX 24 24 0 -3
BITMAP
000000
000000
000000
000000
007C00
007C00
01FE00
03FF80
038780
038780
038780
038780
038780
038780
038780
038000
038000
038000
038000
038000
038000
000000
000000
000000
ENDCHAR
STARTCHAR bWa
ENCODING 4711
SWIDTH 144 0
DWIDTH 24 0
BBX 24 24 0 -3
BITMAP
000000
000000
000000
000000
007C00
007C00
01FE00
03FF80
038780
038780
038780
038780
038780
038780
038780
000780
000780
000780
000780
000780
000780
003FF0
007FF8
007038
ENDCHAR
STARTCHAR ve
ENCODING 4712
SWIDTH 144 0
DWIDTH 24 0
BBX 24 24 0 -3
BITMAP
000000
000000
000000
1C0780
1FFF80
0FFE00
000000
01F000
01F000
03FC00
0FFE00
0F0E00
0F0E00
0F0E00
0F0E00
0F0E00
0F0E00
0F0E00
0F0E00
0F0E00
0F0E00
000000
000000
000000
ENDCHAR
STARTCHAR vu
ENCODING 4713
SWIDTH 144 0
DWIDTH 24 0
BBX 24 24 0 -3
BITMAP
000000
000000
000000
1C0780
1FFF80
0FFE00
000000
01F000
01F000
03FC00
0FFE00
0F0E00
0F0E00
0F0FF8
0F0FF8
0F0E38
0F0E38
0F0E38
0F0E00
0F0E00
0F0E00
000000
000000
000000
ENDCHAR
STARTCHAR vi
ENCODING 4714
SWIDTH 144 0
DWIDTH 24 0
BBX 24 24 0 -3
BITMAP
000000
000000
000000
1C0780
1FFF80
0FFE00
000000
01F000
01F000
03FC00
0FFE00
0F0E00
0F0E00
0F0E00
0F0E00
0F0E00
0F0E00
0F0E00
0F0E38
0F0FF8
0F0FF8
000000
000000
000000
ENDCHAR
STARTCHAR va
ENCODING 4715
SWIDTH 144 0
DWIDTH 24 0
BBX 24 24 0 -3
BITMAP
000000
000000
000000
1C0780
1FFF80
0FFE00
000000
01F000
01F000
03FC00
0FFE00
0F0E00
0F0E00
0F0E00
0F0E00
0F0E00
0F0E00
0F0E00
000E00
000E00
000E00
000000
000000
000000
ENDCHAR
STARTCHAR vE
ENCODING 4716
SWIDTH 144 0
DWIDTH 24 0
BBX 24 24 0 -3
BITMAP
000000
000000
000000
780E00
7FFE00
1FFC00
000000
03E000
03E000
0FF000
1FFC00
1C3C00
1C3C00
1C3C00
1C3C00
1C3C00
1C3FC0
1C3FC0
1C3CF0
1C3FF0
1C3FC0
000000
000000
000000
ENDCHAR
STARTCHAR v
ENCODING 4717
SWIDTH 144 0
DWIDTH 24 0
BBX 24 24 0 -3
BITMAP
000000
000000
000000
0380F0
03FFF0
01FFC0
000000
003E00
003E00
007F80
01FFC0
01E1C0
01E1C0
7FE1C0
7FE1C0
79E1C0
79E1C0
79E1C0
01E1C0
01E1C0
01E1C0
000000
000000
000000
ENDCHAR
STARTCHAR vo
ENCODING 4718
SWIDTH 144 0
DWIDTH 24 0
BBX 24 24 0 -3
BITMAP
000000
000000
000000
1C0780
1FFF80
0FFE00
000000
01F000
01F000
03FC00
0FFE00
0F0E00
0F0E00
0F0E00
0F0E00
0F0E00
0F0E00
0F0E00
0F0000
0F0000
0F0000
000000
000000
000000
ENDCHAR
STARTCHAR vWa
ENCODING 4719
SWIDTH 144 0
DWIDTH 24 0
BBX 24 24 0 -3
BITMAP
000000
000000
000000
1C0780
1FFF80
0FFE00
000000
01F000
01F000
03FC00
0FFE00
0F0E00
0F0E00
0F0E00
0F0E00
0F0E00
0F0E00
0F0E00
000E00
000E00
000E00
007FC0
01FFF0
01E0F0
ENDCHAR
STARTCHAR te
ENCODING 4720
SWIDTH 144 0
DWIDTH 24 0
BBX 24 24 0 -3
BITMAP
000000
000000
000000
01F000
01F000
007000
007000
007000
007000
1FFFC0
7FFFF0
7FFFF0
7870F0
7870F0
007000
007000
007000
007000
007000
007000
007000
000000
000000
000000
ENDCHAR
STARTCHAR tu
ENCODING 4721
SWIDTH 144 0
DWIDTH 24 0
BBX 24 24 0 -3
BITMAP
000000
000000
000000
01F000
01F000
007000
007000
007000
007000
1FFFC0
7FFFF0
7FFFF0
7870F0
7870F0
007000
007FC0
007FC0
0071C0
007000
007000
007000
000000
000000
000000
ENDCHAR
STARTCHAR ti
ENCODING 4722
SWIDTH 144 0
DWIDTH 24 0
BBX 24 24 0 -3
BITMAP
000000
000000
000000
01F000
01F000
007000
007000
007000
007000
1FFFC0
7FFFF0
7FFFF0
7870F0
7870F0
007000
007000
007000
007000
0071C0
007FC0
007FC0
000000
000000
000000
ENDCHAR
STARTCHAR ta
ENCODING 4723
SWIDTH 144 0
DWIDTH 24 0
BBX 24 24 0 -3
BITMAP
000000
000000
000000
01F000
01F000
007000
007000
007000
007000
1FFFC0
7FFFF0
7FFFF0
7870F0
7870F0
007000
007000
01F000
01F000
03E000
0FE000
0F8000
000000
000000
000000
ENDCHAR
STARTCHAR tE
ENCODING 4724
SWIDTH 144 0
DWIDTH 24 0
BBX 24 24 0 -3
BITMAP
000000
000000
000000
01F000
01F000
007000
007000
007000
007000
1FFFC0
7FFFF0
7FFFF0
7870F0
7870F0
007000
007000
007F80
007F80
0071C0
007FC0
007F80
000000
000000
000000
ENDCHAR
STARTCHAR t
ENCODING 4725
SWIDTH 144 0
DWIDTH 24 0
BBX 24 24 0 -3
BITMAP
000000
000000
000000
01E000
01F000
01F000
007C00
007C00
003C00
003C00
0FFFF0
0FFFF0
1FFFF8
1FFFF8
1C3C38
003C00
003C00
003C00
003C00
003C00
003C00
000000
000000
000000
ENDCHAR
STARTCHAR to
ENCODING 4726
SWIDTH 144 0
DWIDTH 24 0
BBX 24 24 0 -3
BITMAP
000000
000000
000000
007F80
007F80
007180
003780
003F80
003C00
0FFFF0
1FFFF8
1FFFF8
1C3C38
1C3C38
003C00
003C00
003C00
003C00
003C00
003C00
003C00
000000
000000
000000
ENDCHAR
STARTCHAR tWa
ENCODING 4727
SWIDTH 144 0
DWIDTH 24 0
BBX 24 24 0 -3
BITMAP
000000
000000
000000
007C00
007C00
003C00
003C00
003C00
003C00
0FFFF0
1FFFF8
1FFFF8
1C3C38
1C3C38
003C00
003C00
003C00
003C00
003C00
003C00
003C00
01FF80
03FFC0
0381C0
ENDCHAR
STARTCHAR ce
ENCODING 4728
SWIDTH 144 0
DWIDTH 24 0
BBX 24 24 0 -3
BITMAP
000000
000000
000000
0F00F0
0FFFF0
0FFFF0
1FFFF8
1FFFF8
1C3C38
003C00
0FFFF0
0FFFF0
1FFFF8
1FFFF8
1C3C38
003C00
003C00
003C00
003C00
003C00
003C00
000000
000000
000000
ENDCHAR
STARTCHAR cu
ENCODING 4729
SWIDTH 144 0
DWIDTH 24 0
BBX 24 24 0 -3
BITMAP
000000
000000
000000
0F00F0
0FFFF0
0FFFF0
1FFFF8
1FFFF8
1C3C38
003C00
0FFFF0
0FFFF0
1FFFF8
1FFFF8
1C3C38
003C00
003FF0
003FF0
003CF0
003CF0
003C00
000000
000000
000000
ENDCHAR
STARTCHAR ci
ENCODING 4730
SWIDTH 144 0
DWIDTH 24 0
BBX 24 24 0 -3
BITMAP
000000
000000
000000
0F00F0
0FFFF0
0FFFF0
1FFFF8
1FFFF8
1C3C38
003C00
0FFFF0
0FFFF0
1FFFF8
1FFFF8
1C3C38
003C00
003C00
003C00
003CF0
003FF0
003FF0
000000
000000
000000
ENDCHAR
STARTCHAR ca
ENCODING 4731
SWIDTH 144 0
DWIDTH 24 0
BBX 24 24 0 -3
BITMAP
000000
000000
000000
1C01C0
1FFFC0
1FFFC0
7FFFF0
7FFFF0
7870F0
007000
1FFFC0
1FFFC0
7FFFF0
7FFFF0
7870F0
007000
01F000
01F000
03E000
0FE000
0F8000
000000
000000
000000
ENDCHAR
STARTCHAR cE
ENCODING 4732
SWIDTH 144 0
DWIDTH 24 0
BBX 24 24 0 -3
BITMAP
000000
000000
000000
1C01C0
1FFFC0
1FFFC0
7FFFF0
7FFFF0
7870F0
007000
1FFFC0
1FFFC0
7FFFF0
7FFFF0
7870F0
007000
007F80
007F80
0071C0
007FC0
007F80
000000
000000
000000
ENDCHAR
STARTCHAR c
ENCODING 4733
SWIDTH 144 0
DWIDTH 24 0
BBX 24 24 0 -3
BITMAP
000000
000000
000000
1C0E00
1FFE00
1FFE00
7FFF80
7FFF80
79E780
01F000
01FC00
003C00
0FFFF0
1FFFF8
1FFFF8
1C3C38
1C3C38
003C00
003C00
003C00
003C00
000000
000000
000000
ENDCHAR
STARTCHAR co
ENCODING 4734
SWIDTH 144 0
DWIDTH 24 0
BBX 24 24 0 -3
BITMAP
000000
000000
000000
0381C0
0FFFF0
0FFFF0
0F66F0
0F66F0
006600
003C00
0FFFF0
0FFFF0
1FFFF8
1FFFF8
1C3C38
003C00
003C00
003C00
003C00
003C00
003C00
000000
000000
000000
ENDCHAR
STARTCHAR cWa
ENCODING 4735
SWIDTH 144 0
DWIDTH 24 0
BBX 24 24 0 -3
BITMAP
000000
000000
000000
0F00F0
0FFFF0
0FFFF0
1FFFF8
1FFFF8
1C3C38
003C00
0FFFF0
0FFFF0
1FFFF8
1FFFF8
1C3C38
003C00
003C00
003C00
003C00
003C00
003C00
01FF80
03FFC0
0381C0
ENDCHAR
STARTCHAR `he/h2e
ENCODING 4736
SWIDTH 144 0
DWIDTH 24 0
BBX 24 24 0 -3
BITMAP
000000
000000
000000
003C00
003C00
003C00
003C00
0FFC00
0FFC00
0F3F80
0F3F80
000780
000780
000780
000780
000780
000780
000780
000780
000780
000780
000000
000000
000000
ENDCHAR
STARTCHAR `hu/h2u
ENCODING 4737
SWIDTH 144 0
DWIDTH 24 0
BBX 24 24 0 -3
BITMAP
000000
000000
000000
007000
007000
007000
007000
1FF000
1FF000
1C7E00
1C7E00
000E00
000E00
000FF8
000FF8
000E38
000E38
000E00
000E00
000E00
000E00
000000
000000
000000
ENDCHAR
STARTCHAR `hi/h2i
ENCODING 4738
SWIDTH 144 0
DWIDTH 24 0
BBX 24 24 0 -3
BITMAP
000000
000000
000000
007000
007000
007000
007000
1FF000
1FF000
1C7E00
1C7E00
000E00
000E00
000E00
000E00
000E00
000E00
000E00
000E38
000FF8
000FF8
000000
000000
000000
ENDCHAR
STARTCHAR `ha/h2a
ENCODING 4739
SWIDTH 144 0
DWIDTH 24 0
BBX 24 24 0 -3
BITMAP
000000
000000
000000
000E00
000E00
000E00
000E00
03FE00
03FE00
038FC0
038FC0
0001C0
0001C0
0001C0
0001C0
000F80
003F80
003C00
007000
007000
007000
000000
000000
000000
ENDCHAR
STARTCHAR `hE/h2E
ENCODING 4740
SWIDTH 144 0
DWIDTH 24 0
BBX 24 24 0 -3
BITMAP
000000
000000
000000
007000
007000
007000
007000
1FF000
1FF000
1C7E00
1C7E00
000E00
000E00
000E00
000E00
000E00
000FF0
000FF0
000E38
000FF8
000FF0
000000
000000
000000
ENDCHAR
STARTCHAR `h/h2
ENCODING 4741
SWIDTH 144 0
DWIDTH 24 0
BBX 24 24 0 -3
BITMAP
000000
000000
000000
000E00
000E00
000E00
000E00
007E00
007E00
01EFC0
03EFC0
0381C0
0381C0
0381C0
0001C0
0001C0
0001C0
0001C0
0001C0
0001C0
0001C0
000000
000000
000000
ENDCHAR
STARTCHAR `ho/h2o
ENCODING 4742
SWIDTH 144 0
DWIDTH 24 0
BBX 24 24 0 -3
BITMAP
000000
000000
000000
003FF0
007FF8
007F98
01E1F0
1FE1F0
1FE000
1DE000
1DE000
01E000
01FF80
01FF80
007F80
000780
000780
000780
000780
000780
000780
000000
000000
000000
ENDCHAR
STARTCHAR hWe
ENCODING 4744
SWIDTH 144 0
DWIDTH 24 0
BBX 24 24 0 -3
BITMAP
000000
000000
000000
01E000
01E000
01E000
01E000
7FE000
7FE000
79FC00
79FC00
003C00
003FF0
003FF8
003DB8
003DF0
003DF0
003C00
003C00
003C00
003C00
000000
000000
000000
ENDCHAR
STARTCHAR hWi
ENCODING 4746
SWIDTH 144 0
DWIDTH 24 0
BBX 24 24 0 -3
BITMAP
000000
000000
000000
01E000
01E000
01E000
01E000
7FE000
7FE000
79FC00
79FCF0
003CF0
003CF0
003FF0
003FF0
003C3E
003C3E
003C1E
003C00
003C00
003C00
000000
000000
000000
ENDCHAR
STARTCHAR hWa
ENCODING 4747
SWIDTH 144 0
DWIDTH 24 0
BBX 24 24 0 -3
BITMAP
000000
000000
000000
003C00
003C00
003C00
003C00
0FFC00
0FFC00
0F3F80
0F3F80
000780
000780
000780
000780
000780
000780
000780
000780
000780
000780
003FF0
007FF8
007038
ENDCHAR
STARTCHAR hWE
ENCODING 4748
SWIDTH 144 0
DWIDTH 24 0
BBX 24 24 0 -3
BITMAP
000000
000000
000000
007000
007000
007000
007000
1FF000
1FF000
1C7E00
1C7E00
000E00
000E00
000E00
000E00
000E00
000E00
000E00
000FF0
000FF8
000E38
007FF0
01FFF0
01E000
ENDCHAR
STARTCHAR hWu/hW
ENCODING 4749
SWIDTH 144 0
DWIDTH 24 0
BBX 24 24 0 -3
BITMAP
000000
000000
000000
01E000
01E000
01E000
01E000
7FE1C0
7FE1C0
79FDC0
79FFF8
003FF8
003C38
003C38
003C00
003C00
003C00
003C00
003C00
003C00
003C00
000000
000000
000000
ENDCHAR
STARTCHAR ne
ENCODING 4752
SWIDTH 144 0
DWIDTH 24 0
BBX 24 24 0 -3
BITMAP
000000
000000
000000
01E000
01E000
01E000
01E000
01FC00
01FC00
003E00
003E00
003C00
003C00
003C00
003C00
007000
007000
007000
007000
007000
007000
000000
000000
000000
ENDCHAR
STARTCHAR nu
ENCODING 4753
SWIDTH 144 0
DWIDTH 24 0
BBX 24 24 0 -3
BITMAP
000000
000000
000000
01E000
01E000
01E000
01E000
01FC00
01FC00
003E00
003E00
003C00
003C00
003FC0
003FC0
0071C0
0071C0
007000
007000
007000
007000
000000
000000
000000
ENDCHAR
STARTCHAR ni
ENCODING 4754
SWIDTH 144 0
DWIDTH 24 0
BBX 24 24 0 -3
BITMAP
000000
000000
000000
038000
038000
038000
038000
03F000
03F000
007C00
007C00
007000
007000
007000
007000
01E000
01E000
01E000
01E780
01FF80
01FF80
000000
000000
000000
ENDCHAR
STARTCHAR na
ENCODING 4755
SWIDTH 144 0
DWIDTH 24 0
BBX 24 24 0 -3
BITMAP
000000
000000
000000
01FE00
03FF80
03FF80
0F0780
1F0780
1C0000
1F0000
1FF000
0FF000
007C00
007C00
003C00
003000
007000
007000
007000
007000
007000
000000
000000
000000
ENDCHAR
STARTCHAR nE
ENCODING 4756
SWIDTH 144 0
DWIDTH 24 0
BBX 24 24 0 -3
BITMAP
000000
000000
000000
01E000
01E000
01E000
01E000
01FC00
01FC00
003E00
003E00
003C00
003C00
003C00
003C00
007E00
007F80
007180
007780
007F80
007E00
000000
000000
000000
ENDCHAR
STARTCHAR n
ENCODING 4757
SWIDTH 144 0
DWIDTH 24 0
BBX 24 24 0 -3
BITMAP
000000
000000
000000
1FFE00
1FFE00
1FFC00
1C3C00
1C7C00
007000
01FE00
01FE00
000E00
003C00
007C00
007000
007000
01F000
01E000
01E000
03E000
038000
000000
000000
000000
ENDCHAR
STARTCHAR no
ENCODING 4758
SWIDTH 144 0
DWIDTH 24 0
BBX 24 24 0 -3
BITMAP
000000
000000
000000
01FFC0
03FFF0
03FE30
0F06F0
1F07F0
1C01C0
1F0000
1FF000
0FF000
007C00
007C00
003C00
003000
007000
007000
007000
007000
007000
000000
000000
000000
ENDCHAR
STARTCHAR nWa
ENCODING 4759
SWIDTH 144 0
DWIDTH 24 0
BBX 24 24 0 -3
BITMAP
000000
000000
000000
000000
01FE00
01FE00
03FF80
0FFF80
0F0780
1C0000
1F0000
1F0000
0FF000
0FFC00
007C00
003C00
003C00
003000
007000
007000
007000
03FE00
0FFF80
0F0780
ENDCHAR
STARTCHAR Ne
ENCODING 4760
SWIDTH 144 0
DWIDTH 24 0
BBX 24 24 0 -3
BITMAP
000000
000000
000000
0381C0
0FFFF0
0FFFF0
0C3C30
0C3C30
003C00
003F80
003FC0
0007C0
000780
000780
000780
000E00
000E00
000E00
000E00
000E00
000E00
000000
000000
000000
ENDCHAR
STARTCHAR Nu
ENCODING 4761
SWIDTH 144 0
DWIDTH 24 0
BBX 24 24 0 -3
BITMAP
000000
000000
000000
0F0780
1FFFC0
1FFFC0
1870C0
1870C0
007000
007E00
007F80
000F80
000E00
000FF0
000FF0
003CF0
003CF0
003C00
003C00
003C00
003C00
000000
000000
000000
ENDCHAR
STARTCHAR Ni
ENCODING 4762
SWIDTH 144 0
DWIDTH 24 0
BBX 24 24 0 -3
BITMAP
000000
000000
000000
0F0780
1FFFC0
1FFFC0
1870C0
1870C0
007000
007E00
007F80
000F80
000E00
000E00
000E00
003C00
003C00
003C00
003CF0
003FF0
003FF0
000000
000000
000000
ENDCHAR
STARTCHAR Na
ENCODING 4763
SWIDTH 144 0
DWIDTH 24 0
BBX 24 24 0 -3
BITMAP
000000
0381C0
0381C0
0FFFF0
0FFFF0
0C3C30
01FE00
03FF80
03FF80
0F0780
1F0780
1C0000
1F0000
1FF000
0FF000
007C00
007C00
003C00
007000
007000
007000
000000
000000
000000
ENDCHAR
STARTCHAR NE
ENCODING 4764
SWIDTH 144 0
DWIDTH 24 0
BBX 24 24 0 -3
BITMAP
000000
000000
000000
0F0780
1FFFC0
1FFFC0
1870C0
1870C0
007000
007E00
007F80
000F80
000E00
000E00
000E00
003F80
003FC0
003CC0
003DC0
003FC0
003F80
000000
000000
000000
ENDCHAR
STARTCHAR N
ENCODING 4765
SWIDTH 144 0
DWIDTH 24 0
BBX 24 24 0 -3
BITMAP
000000
1C0E00
1C0E00
7FFF80
7FFF80
61E180
0FFE00
1FFE00
1FFC00
1C3C00
1C7C00
007000
01FE00
01FE00
000E00
003C00
007C00
007000
007000
007000
007000
000000
000000
000000
ENDCHAR
STARTCHAR No
ENCODING 4766
SWIDTH 144 0
DWIDTH 24 0
BBX 24 24 0 -3
BITMAP
000000
038780
038780
0FFFC0
0FFFC0
0C30C0
01FFC0
03FFF0
03FE30
0F06F0
1F07F0
1C01C0
1F0000
1FF000
0FF000
007C00
007C00
003C00
007000
007000
007000
000000
000000
000000
ENDCHAR
STARTCHAR NWa
ENCODING 4767
SWIDTH 144 0
DWIDTH 24 0
BBX 24 24 0 -3
BITMAP
000000
0381C0
0381C0
0FFFF0
0FFFF0
0C3C30
01FE00
03FF80
03FF80
0F0780
1F0780
1C0000
1F0000
1FF000
0FF000
007C00
007C00
003C00
007000
007000
007000
03FE00
0FFF80
0F0780
ENDCHAR
STARTCHAR e/a
ENCODING 4768
SWIDTH 144 0
DWIDTH 24 0
BBX 24 24 0 -3
BITMAP
000000
000000
000000
01E000
01E000
01E000
01E000
01FC00
01FC00
003C00
007C00
007C00
007E00
01FF80
01EF80
03E780
03E780
038780
038780
038780
038780
000000
000000
000000
ENDCHAR
STARTCHAR u/U
ENCODING 4769
SWIDTH 144 0
DWIDTH 24 0
BBX 24 24 0 -3
BITMAP
000000
000000
000000
0F0000
0F0000
0F0000
0F0000
0FE000
0FE000
01E000
03E000
03E000
03F000
0FFC00
0F7C00
1F3FF0
1F3FF0
1C3CF0
1C3C00
1C3C00
1C3C00
000000
000000
000000
ENDCHAR
STARTCHAR i
ENCODING 4770
SWIDTH 144 0
DWIDTH 24 0
BBX 24 24 0 -3
BITMAP
000000
000000
000000
0F0000
0F0000
0F0000
0F0000
0FE000
0FE000
01E000
03E000
03E000
03F000
0FFC00
0F7C00
1F3C00
1F3C00
1C3C00
1C3CF0
1C3FF0
1C3FF0
000000
000000
000000
ENDCHAR
STARTCHAR a/A
ENCODING 4771
SWIDTH 144 0
DWIDTH 24 0
BBX 24 24 0 -3
BITMAP
000000
000000
000000
01E000
01E000
01E000
01E000
01FC00
01FC00
003C00
007E00
007E00
01EF80
03EF80
038780
038780
038780
038780
000780
000780
000780
000000
000000
000000
ENDCHAR
STARTCHAR E
ENCODING 4772
SWIDTH 144 0
DWIDTH 24 0
BBX 24 24 0 -3
BITMAP
000000
000000
000000
0F0000
0F0000
0F0000
0F0000
0FE000
0FE000
01E000
03E000
03E000
03F000
0FFC00
0F7C00
1F3C00
1F3FC0
1C3FC0
1C3CF0
1C3FF0
1C3FC0
000000
000000
000000
ENDCHAR
STARTCHAR I
ENCODING 4773
SWIDTH 144 0
DWIDTH 24 0
BBX 24 24 0 -3
BITMAP
000000
000000
000000
038000
038000
038000
03E000
03E000
01E000
007000
007C00
007C00
01FE00
03FF80
03EF80
038780
038780
038780
038780
038780
038780
000000
000000
000000
ENDCHAR
STARTCHAR o/O
ENCODING 4774
SWIDTH 144 0
DWIDTH 24 0
BBX 24 24 0 -3
BITMAP
000000
000000
000000
01E000
01E000
01E000
01E000
01FC00
01FC00
003C00
007E00
007E00
01EF80
03EF80
038780
038780
038780
038780
038000
038000
038000
000000
000000
000000
ENDCHAR
STARTCHAR e3
ENCODING 4775
SWIDTH 144 0
DWIDTH 24 0
BBX 24 24 0 -3
BITMAP
000000
0F0E00
0F0E00
0FFE00
1FFF80
1DE780
01E000
01FC00
01FC00
003C00
007C00
007C00
007E00
01FF80
01EF80
03E780
03E780
038780
038780
038780
038780
000000
000000
000000
ENDCHAR
STARTCHAR ke
ENCODING 4776
SWIDTH 144 0
DWIDTH 24 0
BBX 24 24 0 -3
BITMAP
000000
000000
000000
000000
0F0000
0F0000
0F3E00
0FFF80
0FFF80
0FE1C0
0FE1C0
01E1C0
01E1C0
01E1C0
01E1C0
01E1C0
01E1C0
01E1C0
01E1C0
01E1C0
01E1C0
000000
000000
000000
ENDCHAR
STARTCHAR ku
ENCODING 4777
SWIDTH 144 0
DWIDTH 24 0
BBX 24 24 0 -3
BITMAP
000000
000000
000000
000000
780000
780000
79F000
7FFC00
7FFC00
7F0E00
7F0E00
0F0E00
0F0E00
0F0FF8
0F0FF8
0F0E38
0F0E38
0F0E00
0F0E00
0F0E00
0F0E00
000000
000000
000000
ENDCHAR
STARTCHAR ki
ENCODING 4778
SWIDTH 144 0
DWIDTH 24 0
BBX 24 24 0 -3
BITMAP
000000
000000
000000
000000
780000
780000
79F000
7FFC00
7FFC00
7F0E00
7F0E00
0F0E00
0F0E00
0F0E00
0F0E00
0F0E00
0F0E00
0F0E00
0F0E38
0F0FF8
0F0FF8
000000
000000
000000
ENDCHAR
STARTCHAR ka
ENCODING 4779
SWIDTH 144 0
DWIDTH 24 0
BBX 24 24 0 -3
BITMAP
000000
000000
000000
000000
0F0000
0F0000
0F3E00
0FFF80
0FFF80
0FE1C0
0FE1C0
01E1C0
01E1C0
01E1C0
01E1C0
01E1C0
01E1C0
0001C0
0001C0
0001C0
0001C0
000000
000000
000000
ENDCHAR
STARTCHAR kE
ENCODING 4780
SWIDTH 144 0
DWIDTH 24 0
BBX 24 24 0 -3
BITMAP
000000
000000
000000
000000
780000
780000
79F000
7FFC00
7FFC00
7F0E00
7F0E00
0F0E00
0F0E00
0F0E00
0F0E00
0F0E00
0F0FF0
0F0FF0
0F0E38
0F0FF8
0F0FF0
000000
000000
000000
ENDCHAR
STARTCHAR k
ENCODING 4781
SWIDTH 144 0
DWIDTH 24 0
BBX 24 24 0 -3
BITMAP
000000
000000
000000
000000
0F0000
0F0000
0F3E00
0F7F80
0F7F80
0FE1C0
0FE1C0
0381C0
03E1C0
03E1C0
01E1C0
01E1C0
01E1C0
01E1C0
01E1C0
01E1C0
01E1C0
000000
000000
000000
ENDCHAR
STARTCHAR ko
ENCODING 4782
SWIDTH 144 0
DWIDTH 24 0
BBX 24 24 0 -3
BITMAP
000000
000000
000000
000000
0F0000
0F0000
0F3E00
0FFF80
0FFF80
0FE1C0
0FE1C0
01E1C0
01E1C0
01E1C0
01E1C0
01E1C0
01E1C0
01E000
01E000
01E000
01E000
000000
000000
000000
ENDCHAR
STARTCHAR kWe
ENCODING 4784
SWIDTH 144 0
DWIDTH 24 0
BBX 24 24 0 -3
BITMAP
000000
000000
000000
000000
780000
780000
79E000
7FF000
7FF000
7F3C00
7F3C00
0F3C00
0F3FF0
0F3FF8
0F3DB8
0F3DF0
0F3DF0
0F3C00
0F3C00
0F3C00
0F3C00
000000
000000
000000
ENDCHAR
STARTCHAR kWi
ENCODING 4786
SWIDTH 144 0
DWIDTH 24 0
BBX 24 24 0 -3
BITMAP
000000
000000
000000
000000
780000
780000
79E000
7FF000
7FF000
7F3C00
7F3CF0
0F3CF0
0F3CF0
0F3FF0
0F3FF0
0F3C3E
0F3C3E
0F3C1E
0F3C00
0F3C00
0F3C00
000000
000000
000000
ENDCHAR
STARTCHAR kWa
ENCODING 4787
SWIDTH 144 0
DWIDTH 24 0
BBX 24 24 0 -3
BITMAP
000000
000000
000000
000000
0F0000
0F0000
0F3E00
0FFF80
0FFF80
0FE1C0
0FE1C0
01E1C0
01E1C0
01E1C0
01E1C0
01E1C0
01E1C0
0001C0
0001C0
0001C0
0001C0
000FF8
003FFE
003C1E
ENDCHAR
STARTCHAR kWE
ENCODING 4788
SWIDTH 144 0
DWIDTH 24 0
BBX 24 24 0 -3
BITMAP
000000
000000
000000
000000
780000
780000
79F000
7FFC00
7FFC00
7F0E00
7F0E00
0F0E00
0F0E00
0F0E00
0F0E00
0F0E00
0F0E00
000E00
000FF0
000FF8
000E38
007FF0
01FFF0
01E000
ENDCHAR
STARTCHAR kWu/kW
ENCODING 4789
SWIDTH 144 0
DWIDTH 24 0
BBX 24 24 0 -3
BITMAP
000000
000000
000000
000000
780000
780000
79E1C0
7FF1C0
7FF1C0
7F3FF8
7F3FF8
0F3C38
0F3C00
0F3C00
0F3C00
0F3C00
0F3C00
0F3C00
0F3C00
0F3C00
0F3C00
000000
000000
000000
ENDCHAR
STARTCHAR Ke
ENCODING 4792
SWIDTH 144 0
DWIDTH 24 0
BBX 24 24 0 -3
BITMAP
000000
000000
000000
783C00
7FFC00
1FF000
038000
03BE00
03BE00
03FF80
03FFC0
01E1C0
01E1C0
01E1C0
01E1C0
01E1C0
01E1C0
01E1C0
01E1C0
01E1C0
01E1C0
000000
000000
000000
ENDCHAR
STARTCHAR Ku
ENCODING 4793
SWIDTH 144 0
DWIDTH 24 0
BBX 24 24 0 -3
BITMAP
000000
000000
000000
E07000
FFF000
7FE000
0F0000
0F7C00
0F7C00
0FFE00
0FFF80
038780
038780
0387FE
0387FE
03879E
03879E
038780
038780
038780
038780
000000
000000
000000
ENDCHAR
STARTCHAR Ki
ENCODING 4794
SWIDTH 144 0
DWIDTH 24 0
BBX 24 24 0 -3
BITMAP
000000
000000
000000
E07000
FFF000
7FE000
0F0000
0F7C00
0F7C00
0FFE00
0FFF80
038780
038780
038780
038780
038780
038780
038780
03879E
0387FE
0387FE
000000
000000
000000
ENDCHAR
STARTCHAR Ka
ENCODING 4795
SWIDTH 144 0
DWIDTH 24 0
BBX 24 24 0 -3
BITMAP
000000
000000
000000
783C00
7FFC00
1FF000
038000
03BE00
03BE00
03FF80
03FFC0
01E1C0
01E1C0
01E1C0
01E1C0
01E1C0
01E1C0
0001C0
0001C0
0001C0
0001C0
000000
000000
000000
ENDCHAR
STARTCHAR KE
ENCODING 4796
SWIDTH 144 0
DWIDTH 24 0
BBX 24 24 0 -3
BITMAP
000000
000000
000000
783C00
7FFC00
1FF000
038000
03BE00
03BE00
03FF80
03FFC0
01E1C0
01E1C0
01E1C0
01E1C0
01E1C0
01E1FE
01E1FE
01E1C7
01E1FF
01E1FE
000000
000000
000000
ENDCHAR
STARTCHAR K
ENCODING 4797
SWIDTH 144 0
DWIDTH 24 0
BBX 24 24 0 -3
BITMAP
000000
000000
000000
783C00
7FFC00
1FF000
038000
03EF80
03EF80
03FFC0
03FFF0
0070F0
007CF0
007CF0
003CF0
003CF0
003CF0
003CF0
003CF0
003CF0
003CF0
000000
000000
000000
ENDCHAR
STARTCHAR Ko
ENCODING 4798
SWIDTH 144 0
DWIDTH 24 0
BBX 24 24 0 -3
BITMAP
000000
000000
000000
783C00
7FFC00
1FF000
038000
03BE00
03BE00
03FF80
03FFC0
01E1C0
01E1C0
01E1C0
01E1C0
01E1C0
01E1C0
01E000
01E000
01E000
01E000
000000
000000
000000
ENDCHAR
STARTCHAR KWe
ENCODING 4800
SWIDTH 144 0
DWIDTH 24 0
BBX 24 24 0 -3
BITMAP
000000
000000
000000
E07000
FFF000
7FE000
0F0000
0F7C00
0F7C00
0FFE00
0FFF80
038780
0387FE
0387FF
0387B7
0387BE
0387BE
038780
038780
038780
038780
000000
000000
000000
ENDCHAR
STARTCHAR KWi
ENCODING 4802
SWIDTH 144 0
DWIDTH 24 0
BBX 24 24 0 -3
BITMAP
000000
000000
000000
E07000
FFF000
7FE000
0F0000
0F7000
0F7000
0FFC00
0FFE38
038E38
038E38
038FF8
038FF8
038E1F
038E1F
038E07
038E00
038E00
038E00
000000
000000
000000
ENDCHAR
STARTCHAR KWa
ENCODING 4803
SWIDTH 144 0
DWIDTH 24 0
BBX 24 24 0 -3
BITMAP
000000
000000
000000
783C00
7FFC00
1FF000
038000
03BE00
03BE00
03FF80
03FFC0
01E7C0
01E1C0
01E1C0
01E1C0
01E1C0
01E1C0
0001C0
0001C0
0001C0
0001C0
000FF8
003FFE
003C1E
ENDCHAR
STARTCHAR KWE
ENCODING 4804
SWIDTH 144 0
DWIDTH 24 0
BBX 24 24 0 -3
BITMAP
000000
000000
000000
783C00
7FFC00
1FF000
038000
03BE00
03BE00
03FF80
03FFC0
01E7C0
01E1C0
01E1C0
01E1C0
01E1C0
01E1C0
0001C0
0001FE
0001FF
0001C7
000FFE
003FFE
003C00
ENDCHAR
STARTCHAR KWu/KW
ENCODING 4805
SWIDTH 144 0
DWIDTH 24 0
BBX 24 24 0 -3
BITMAP
000000
000000
000000
E07000
FFF000
7FE000
0F0038
0F7C38
0F7C38
0FFFFF
0FFFFF
038787
038780
038780
038780
038780
038780
038780
038780
038780
038780
000000
000000
000000
ENDCHAR
STARTCHAR we
ENCODING 4808
SWIDTH 144 0
DWIDTH 24 0
BBX 24 24 0 -3
BITMAP
000000
000000
000000
000000
000000
000000
000000
03FFC0
03FFC0
0FBDF0
1FBDF0
1C3CF0
1C3CF0
1C7CF0
1C70F0
1C71C0
1F77C0
1F77C0
0FFE00
0FFE00
000000
000000
000000
000000
ENDCHAR
STARTCHAR wu
ENCODING 4809
SWIDTH 144 0
DWIDTH 24 0
BBX 24 24 0 -3
BITMAP
000000
000000
000000
000000
000000
000000
000000
1FFE00
1FFE00
7DEF80
FDEF80
E1E780
E1E780
E3E780
E38780
E38F80
FBBF9E
FBBE1E
7FFFF8
7FFFF8
000038
000000
000000
000000
ENDCHAR
STARTCHAR wi
ENCODING 4810
SWIDTH 144 0
DWIDTH 24 0
BBX 24 24 0 -3
BITMAP
000000
000000
000000
03FFC0
0FFFF0
0FBDF0
1C3CF0
1C3CF0
1C3CF0
1C70F0
1F7DF0
1F7DC0
0FFF80
0FFF80
007000
007000
01F000
01F000
01E780
01FF80
01FF80
000000
000000
000000
ENDCHAR
STARTCHAR wa
ENCODING 4811
SWIDTH 144 0
DWIDTH 24 0
BBX 24 24 0 -3
BITMAP
000000
000000
000000
03FFC0
0FFFF0
0FBDF0
1C3CF0
1C3CF0
1C3CF0
1C70F0
1F7DF0
1F7DC0
0FFF80
0FFF80
007000
007000
007000
007000
007000
01F000
01F000
000000
000000
000000
ENDCHAR
STARTCHAR wE
ENCODING 4812
SWIDTH 144 0
DWIDTH 24 0
BBX 24 24 0 -3
BITMAP
000000
000000
000000
03FFC0
0FFFF0
0FBDF0
1C3CF0
1C3CF0
1C3CF0
1C70F0
1F7DF0
1F7DC0
0FFF80
0FFF80
007000
007000
01FC00
01FC00
01E780
01FF80
01FE00
000000
000000
000000
ENDCHAR
STARTCHAR w
ENCODING 4813
SWIDTH 144 0
DWIDTH 24 0
BBX 24 24 0 -3
BITMAP
000000
000000
000000
000000
000000
000000
000000
1FFE00
1FFE00
7DEF80
FDEF80
E1E780
E1E7FE
E3E7FE
E3879E
E38E06
FBBE06
FBBE00
7FF000
7FF000
000000
000000
000000
000000
ENDCHAR
STARTCHAR wo
ENCODING 4814
SWIDTH 144 0
DWIDTH 24 0
BBX 24 24 0 -3
BITMAP
000000
000000
000000
03FFC0
0FFFF0
0FBDF0
1C3CF0
1C3CF0
1C3CF0
1C70F0
1F7DF0
1F7DC0
0FFF80
0FFF80
007000
01E000
03E000
038000
0F0000
0F0000
0F0000
000000
000000
000000
ENDCHAR
STARTCHAR `e/e2
ENCODING 4816
SWIDTH 144 0
DWIDTH 24 0
BBX 24 24 0 -3
BITMAP
000000
000000
000000
000000
003F80
003F80
01E1C0
03E1C0
0381C0
0381C0
0381C0
0381C0
0381C0
0381C0
0381C0
0381C0
0381C0
0381C0
01FFC0
01FFC0
01E000
000000
000000
000000
ENDCHAR
STARTCHAR `u/u2
ENCODING 4817
SWIDTH 144 0
DWIDTH 24 0
BBX 24 24 0 -3
BITMAP
000000
000000
000000
000000
01FC00
01FC00
0F0E00
1F0E00
1C0E00
1C0E00
1C0E00
1C0E00
1C0E00
1C0FF8
1C0FF8
1C0E38
1C0E38
1C0E00
0FFE00
0FFE00
0F0000
000000
000000
000000
ENDCHAR
STARTCHAR `i/i2
ENCODING 4818
SWIDTH 144 0
DWIDTH 24 0
BBX 24 24 0 -3
BITMAP
000000
000000
000000
000000
0FF000
0FF000
1C3C00
7C3C00
783C00
783C00
783C00
783C00
1FFE00
1FFE00
000E00
000E00
003E00
003C00
003CF0
003FF0
003FF0
000000
000000
000000
ENDCHAR
STARTCHAR `a/A2
ENCODING 4819
SWIDTH 144 0
DWIDTH 24 0
BBX 24 24 0 -3
BITMAP
000000
000000
000000
000000
01FE00
01FE00
038780
0F8780
0F0780
0F0780
0F0780
0F0780
03FFC0
03FFC0
0001C0
0001C0
0001C0
0001C0
000780
000780
000780
000000
000000
000000
ENDCHAR
STARTCHAR `E/E2
ENCODING 4820
SWIDTH 144 0
DWIDTH 24 0
BBX 24 24 0 -3
BITMAP
000000
000000
000000
000000
0FF000
0FF000
1C3C00
7C3C00
783C00
783C00
783C00
783C00
1FFE00
1FFE00
000E00
000E00
003FC0
003FC0
003CF0
003FF0
003FC0
000000
000000
000000
ENDCHAR
STARTCHAR `I/I2
ENCODING 4821
SWIDTH 144 0
DWIDTH 24 0
BBX 24 24 0 -3
BITMAP
000000
003C00
003C00
003C00
003C00
003C00
01FF80
03FFC0
03E1C0
0381C0
0381C0
0381C0
0381C0
0381C0
0381C0
0381C0
0381C0
0381C0
01FFC0
01FFC0
01E000
000000
000000
000000
ENDCHAR
STARTCHAR `o/o2
ENCODING 4822
SWIDTH 144 0
DWIDTH 24 0
BBX 24 24 0 -3
BITMAP
000000
000000
000000
007E00
01FF80
01E780
0381C0
0381C0
0381C0
0381C0
03E7C0
03E7C0
01FF80
01FF80
007E00
01F000
03F000
038000
038000
038000
038000
000000
000000
000000
ENDCHAR
STARTCHAR ze
ENCODING 4824
SWIDTH 144 0
DWIDTH 24 0
BBX 24 24 0 -3
BITMAP
000000
000000
000000
038780
038780
038780
038780
038780
038780
038780
03FF80
03FF80
03FF80
03FF80
038780
038780
038780
038780
038780
038780
038780
000000
000000
000000
ENDCHAR
STARTCHAR zu
ENCODING 4825
SWIDTH 144 0
DWIDTH 24 0
BBX 24 24 0 -3
BITMAP
000000
000000
000000
1C3C00
1C3C00
1C3C00
1C3C00
1C3C00
1C3C00
1C3C00
1FFC00
1FFC00
1FFC00
1FFFF0
1C3FF0
1C3CF0
1C3CF0
1C3CF0
1C3C00
1C3C00
1C3C00
000000
000000
000000
ENDCHAR
STARTCHAR zi
ENCODING 4826
SWIDTH 144 0
DWIDTH 24 0
BBX 24 24 0 -3
BITMAP
000000
000000
000000
1C3C00
1C3C00
1C3C00
1C3C00
1C3C00
1C3C00
1C3C00
1FFC00
1FFC00
1FFC00
1FFC00
1C3C00
1C3C00
1C3C00
1C3C00
1C3CF0
1C3FF0
1C3FF0
000000
000000
000000
ENDCHAR
STARTCHAR za
ENCODING 4827
SWIDTH 144 0
DWIDTH 24 0
BBX 24 24 0 -3
BITMAP
000000
000000
000000
038780
038780
038780
038780
038780
038780
03FF80
03FF80
03FF80
038780
038780
038780
038780
038780
000780
000780
000780
000780
000000
000000
000000
ENDCHAR
STARTCHAR zE
ENCODING 4828
SWIDTH 144 0
DWIDTH 24 0
BBX 24 24 0 -3
BITMAP
000000
000000
000000
0F0E00
0F0E00
0F0E00
0F0E00
0F0E00
0F0E00
0F0E00
0FFE00
0FFE00
0FFE00
0FFE00
0F0E00
0F0E00
0F0FF0
0F0FF0
0F0E38
0F0FF8
0F0FF0
000000
000000
000000
ENDCHAR
STARTCHAR z
ENCODING 4829
SWIDTH 144 0
DWIDTH 24 0
BBX 24 24 0 -3
BITMAP
000000
000000
000000
0F81C0
1FE1C0
1DE1C0
1DE1C0
1DE1C0
01E1C0
01E1C0
01FFC0
01FFC0
01FFC0
01FFC0
01E1C0
01E1C0
01E1C0
01E1C0
01E1C0
01E1C0
01E1C0
000000
000000
000000
ENDCHAR
STARTCHAR zo
ENCODING 4830
SWIDTH 144 0
DWIDTH 24 0
BBX 24 24 0 -3
BITMAP
000000
000000
000000
038780
038780
038780
038780
038780
038780
03FF80
03FF80
03FF80
038780
038780
038780
038780
038780
038000
038000
038000
038000
000000
000000
000000
ENDCHAR
STARTCHAR zWa
ENCODING 4831
SWIDTH 144 0
DWIDTH 24 0
BBX 24 24 0 -3
BITMAP
000000
000000
000000
038780
038780
038780
038780
038780
038780
03FF80
03FF80
03FF80
038780
038780
038780
038780
038780
000780
000780
000780
000780
003FF0
007FF8
007038
ENDCHAR
STARTCHAR Ze
ENCODING 4832
SWIDTH 144 0
DWIDTH 24 0
BBX 24 24 0 -3
BITMAP
000000
000000
000000
0F81F0
1FE7F8
1DE7B8
1DE7B8
1DE7B8
01E780
01E780
01FF80
01FF80
01FF80
01FF80
01E780
01E780
01E780
01E780
01E780
01E780
01E780
000000
000000
000000
ENDCHAR
STARTCHAR Zu
ENCODING 4833
SWIDTH 144 0
DWIDTH 24 0
BBX 24 24 0 -3
BITMAP
000000
000000
000000
1F07C0
7F8FF0
7B8EF0
7B8EF0
7B8EF0
038E00
038E00
03FE00
03FE00
03FE00
03FFF8
038FF8
038E38
038E38
038E38
038E00
038E00
038E00
000000
000000
000000
ENDCHAR
STARTCHAR Zi
ENCODING 4834
SWIDTH 144 0
DWIDTH 24 0
BBX 24 24 0 -3
BITMAP
000000
000000
000000
1F07C0
7F8FF0
7B8EF0
7B8EF0
7B8EF0
038E00
038E00
03FE00
03FE00
03FE00
03FE00
038E00
038E00
038E00
038E00
038E38
038FF8
038FF8
000000
000000
000000
ENDCHAR
STARTCHAR Za
ENCODING 4835
SWIDTH 144 0
DWIDTH 24 0
BBX 24 24 0 -3
BITMAP
000000
000000
000000
0F81F0
1FE7F8
1DE7B8
1DE7B8
1DE7B8
01E780
01FF80
01FF80
01FF80
01E780
01E780
01E780
01E780
01E780
000780
000780
000780
000780
000000
000000
000000
ENDCHAR
STARTCHAR ZE
ENCODING 4836
SWIDTH 144 0
DWIDTH 24 0
BBX 24 24 0 -3
BITMAP
000000
000000
000000
1F07C0
7F8FF0
7B8EF0
7B8EF0
7B8EF0
038E00
038E00
03FE00
03FE00
03FE00
03FE00
038E00
038E00
038FF0
038FF0
038E38
038FF8
038FF0
000000
000000
000000
ENDCHAR
STARTCHAR Z
ENCODING 4837
SWIDTH 144 0
DWIDTH 24 0
BBX 24 24 0 -3
BITMAP
000000
783C00
783C00
1FF000
1FF000
038000
0F81F0
1FE7F8
1DE7B8
1DE7B8
1DE7B8
01E780
01FF80
01FF80
01FF80
01E780
01E780
01E780
01E780
01E780
01E780
000000
000000
000000
ENDCHAR
STARTCHAR Zo
ENCODING 4838
SWIDTH 144 0
DWIDTH 24 0
BBX 24 24 0 -3
BITMAP
000000
000000
000000
0F81F0
1FE7F8
1DE7B8
1DE7B8
1DE7B8
01E780
01FF80
01FF80
01FF80
01E780
01E780
01E780
01E780
01E780
01E000
01E000
01E000
01E000
000000
000000
000000
ENDCHAR
STARTCHAR ZWa
ENCODING 4839
SWIDTH 144 0
DWIDTH 24 0
BBX 24 24 0 -3
BITMAP
000000
000000
000000
0F81F0
1FE7F8
1DE7B8
1DE7B8
1DE7B8
01E780
01FF80
01FF80
01FF80
01E780
01E780
01E780
01E780
01E780
000780
000780
000780
000780
003FF0
007FF8
007038
ENDCHAR
STARTCHAR ye
ENCODING 4840
SWIDTH 144 0
DWIDTH 24 0
BBX 24 24 0 -3
BITMAP
000000
000000
000000
007C00
01FE00
01EE00
038780
038780
038780
038780
038780
038780
03EE00
03FE00
01FC00
007000
007000
007000
007000
007000
007000
000000
000000
000000
ENDCHAR
STARTCHAR yu
ENCODING 4841
SWIDTH 144 0
DWIDTH 24 0
BBX 24 24 0 -3
BITMAP
000000
000000
000000
007C00
01FE00
01EE00
038780
038780
038780
038780
038780
038780
03EE00
03FE00
01FC00
007000
007FC0
007FC0
0071C0
0071C0
007000
000000
000000
000000
ENDCHAR
STARTCHAR yi
ENCODING 4842
SWIDTH 144 0
DWIDTH 24 0
BBX 24 24 0 -3
BITMAP
000000
000000
000000
01F000
03FC00
03BC00
0F0E00
0F0E00
0F0E00
0F0E00
0F0E00
0F0E00
0FBC00
0FFC00
03F000
01E780
01FFF0
01FFF0
01E0F0
01E0F0
01E000
000000
000000
000000
ENDCHAR
STARTCHAR ya
ENCODING 4843
SWIDTH 144 0
DWIDTH 24 0
BBX 24 24 0 -3
BITMAP
000000
000000
000000
003E00
007F80
007780
01E1C0
01E1C0
01E1C0
01E1C0
01E7C0
01E780
01FE00
01FE00
007C00
003E00
003F80
000780
003E00
007E00
007C00
000000
000000
000000
ENDCHAR
STARTCHAR yE
ENCODING 4844
SWIDTH 144 0
DWIDTH 24 0
BBX 24 24 0 -3
BITMAP
000000
000000
000000
01F000
03FC00
03BC00
0F0E00
0F0E00
0F0E00
0F0E00
0F0E00
0F0E00
0FBC00
0FFC00
03F000
01EFC0
01FFF0
01FCF0
01EFC0
01EFC0
01E000
000000
000000
000000
ENDCHAR
STARTCHAR y
ENCODING 4845
SWIDTH 144 0
DWIDTH 24 0
BBX 24 24 0 -3
BITMAP
000000
000000
000000
000000
01FC00
01FC00
038E00
0F8E00
0F0E00
0F0E00
0F0E00
0F0E00
03BC00
03FDC0
03F1C0
01F1C0
01FFC0
007F80
1FE000
7FE000
7C0000
780000
780000
000000
ENDCHAR
STARTCHAR yo
ENCODING 4846
SWIDTH 144 0
DWIDTH 24 0
BBX 24 24 0 -3
BITMAP
000000
000000
000000
03E000
0FF000
0F7000
1C3C00
1C3FF0
1C3FF0
1C3CF0
1C3CF0
1C3C00
1F7000
1FF000
0FE000
038000
038000
038000
038000
038000
038000
000000
000000
000000
ENDCHAR
STARTCHAR yWa
ENCODING 4847
SWIDTH 144 0
DWIDTH 24 0
BBX 24 24 0 -3
BITMAP
0F87C0
0FFFC0
03FF80
007C00
007C00
007C00
01EE00
03EF80
038780
038780
038780
038780
038780
03EF80
03EE00
01FC00
01FC00
007000
007000
007000
007000
007000
007000
000000
ENDCHAR
STARTCHAR de
ENCODING 4848
SWIDTH 144 0
DWIDTH 24 0
BBX 24 24 0 -3
BITMAP
000000
000000
000000
007C00
01FE00
01FE00
038600
038600
038600
038E00
03FE00
03FC00
01E000
01F000
007000
007000
007C00
003C00
0FFFF0
0FFFF0
0F00F0
000000
000000
000000
ENDCHAR
STARTCHAR du
ENCODING 4849
SWIDTH 144 0
DWIDTH 24 0
BBX 24 24 0 -3
BITMAP
000000
000000
000000
01F000
03FC00
03FC00
0F0C00
0F3C00
0F3C00
0FF000
0FF000
038000
01E000
0FFE00
0FFE00
1C0E00
1C0FF8
1C0FF8
003C38
003C38
003C00
000000
000000
000000
ENDCHAR
STARTCHAR di
ENCODING 4850
SWIDTH 144 0
DWIDTH 24 0
BBX 24 24 0 -3
BITMAP
000000
000000
000000
01F000
03FC00
03FC00
0F0C00
0F3C00
0F3C00
0FF000
0FF000
038000
01E000
0FFE00
0FFE00
1C0E00
1C0E00
1C0E00
003CF0
003FF0
003FF0
000000
000000
000000
ENDCHAR
STARTCHAR da
ENCODING 4851
SWIDTH 144 0
DWIDTH 24 0
BBX 24 24 0 -3
BITMAP
000000
000000
000000
003E00
007F80
007F80
01E180
01E780
01E780
01FE00
01FE00
007000
003C00
03FFC0
03FFC0
0381C0
0381C0
0381C0
0001C0
0001C0
0001C0
000000
000000
000000
ENDCHAR
STARTCHAR dE
ENCODING 4852
SWIDTH 144 0
DWIDTH 24 0
BBX 24 24 0 -3
BITMAP
000000
000000
000000
01F000
03FC00
03FC00
0F0C00
0F0C00
0F0C00
0F3C00
0FFC00
0FF000
038000
03E000
01E000
01E000
01FFC0
007FC0
1FFCF0
1FFFF0
1C0FC0
000000
000000
000000
ENDCHAR
STARTCHAR d
ENCODING 4853
SWIDTH 144 0
DWIDTH 24 0
BBX 24 24 0 -3
BITMAP
000000
000000
000000
01F000
03FC00
03FC00
0F0FF0
0F0FF0
0F0CF0
0F3C00
0FFC00
0FF000
038000
03E000
01E000
01E000
01F000
007000
1FFFC0
1FFFC0
1C01C0
000000
000000
000000
ENDCHAR
STARTCHAR do
ENCODING 4854
SWIDTH 144 0
DWIDTH 24 0
BBX 24 24 0 -3
BITMAP
000000
000000
000000
003E00
007F80
007F80
01E180
01E780
01E780
01FE00
01FE00
007C00
01FFC0
03FFC0
0381C0
0F0000
0F0000
0F0000
0F0000
0F0000
0F0000
000000
000000
000000
ENDCHAR
STARTCHAR dWa
ENCODING 4855
SWIDTH 144 0
DWIDTH 24 0
BBX 24 24 0 -3
BITMAP
000000
000000
000000
003E00
007F80
007F80
01E180
01E780
01E780
01FE00
01FE00
007000
003C00
03FFC0
03FFC0
0381C0
0381C0
0381C0
0001C0
0001C0
0001C0
000FF8
003FFE
003C1E
ENDCHAR
STARTCHAR De
ENCODING 4856
SWIDTH 144 0
DWIDTH 24 0
BBX 24 24 0 -3
BITMAP
000000
000000
000000
003000
003000
003000
007C00
01FE00
01FE00
038600
038E00
038E00
03FC00
03FC00
01E000
007000
007C00
003C00
03FFC0
03FFC0
0381C0
000000
000000
000000
ENDCHAR
STARTCHAR Du
ENCODING 4857
SWIDTH 144 0
DWIDTH 24 0
BBX 24 24 0 -3
BITMAP
000000
000000
000000
006000
006000
006000
01F000
03FC00
03FC00
0F0C00
0F3C00
0F3C00
0FF000
0FF000
038000
0FFE00
1FFFF8
1C0FF8
1C3C38
1C3C38
003C00
000000
000000
000000
ENDCHAR
STARTCHAR Di
ENCODING 4858
SWIDTH 144 0
DWIDTH 24 0
BBX 24 24 0 -3
BITMAP
000000
000000
000000
006000
006000
006000
01F000
03FC00
03FC00
0F0C00
0F3C00
0F3C00
0FF000
0FF000
038000
0FFE00
1FFE00
1C0E00
1C3CF0
1C3FF0
003FF0
000000
000000
000000
ENDCHAR
STARTCHAR Da
ENCODING 4859
SWIDTH 144 0
DWIDTH 24 0
BBX 24 24 0 -3
BITMAP
000000
000000
000000
003000
003000
003000
007C00
01FE00
01FE00
038600
038E00
038E00
03FC00
03FC00
01E000
0FFF80
0FFF80
0F0780
000780
000780
000780
000000
000000
000000
ENDCHAR
STARTCHAR DE
ENCODING 4860
SWIDTH 144 0
DWIDTH 24 0
BBX 24 24 0 -3
BITMAP
000000
000000
000000
018000
018000
018000
03E000
0FF000
0FF000
1C3000
1C7000
1C7000
1FE000
1FE000
0F0000
038000
03EFC0
01EFC0
1FFCF0
1FFFF0
1C0FC0
000000
000000
000000
ENDCHAR
STARTCHAR D
ENCODING 4861
SWIDTH 144 0
DWIDTH 24 0
BBX 24 24 0 -3
BITMAP
000000
000000
000000
006000
006000
006000
01F000
03FC00
03FC00
0F0FF0
0F3FF0
0F3CF0
0FF000
0FF000
038000
01E000
01F000
007000
0FFF80
0FFF80
0F0780
000000
000000
000000
ENDCHAR
STARTCHAR Do
ENCODING 4862
SWIDTH 144 0
DWIDTH 24 0
BBX 24 24 0 -3
BITMAP
000000
000000
000000
003000
003000
003000
007C00
01FE00
01FE00
038600
038E00
038E00
03FC00
03FFC0
01FFC0
0381C0
0F81C0
0F0000
0F0000
0F0000
0F0000
000000
000000
000000
ENDCHAR
STARTCHAR DWa
ENCODING 4863
SWIDTH 144 0
DWIDTH 24 0
BBX 24 24 0 -3
BITMAP
000C00
000C00
000C00
003E00
007F80
007F80
01E180
01E780
01E780
01FE00
01FE00
007000
003C00
03FFC0
03FFC0
0381C0
0381C0
0381C0
0001C0
0001C0
0001C0
000FF8
003FFE
003C1E
ENDCHAR
STARTCHAR je
ENCODING 4864
SWIDTH 144 0
DWIDTH 24 0
BBX 24 24 0 -3
BITMAP
000000
1C01C0
1C01C0
0FFF80
0FFF80
007000
01FC00
03FE00
038E00
038600
038E00
038E00
01FC00
01FC00
01E000
01F000
01F000
007000
0FFF80
0FFF80
0F0780
000000
000000
000000
ENDCHAR
STARTCHAR ju
ENCODING 4865
SWIDTH 144 0
DWIDTH 24 0
BBX 24 24 0 -3
BITMAP
000000
780780
780780
1FFE00
1FFE00
01E000
03F000
0FFC00
0F3C00
0F3C00
0FFC00
03F000
01E000
0FFE00
0FFE00
1C0E00
1C0FF8
1C0FF8
003C38
003C38
003C00
000000
000000
000000
ENDCHAR
STARTCHAR ji
ENCODING 4866
SWIDTH 144 0
DWIDTH 24 0
BBX 24 24 0 -3
BITMAP
000000
780780
780780
1FFE00
1FFE00
01E000
03F000
0FFC00
0F3C00
0F3C00
0FFC00
03F000
01E000
0FFE00
0FFE00
1C0E00
1C0E00
1C0E00
003CF0
003FF0
003FF0
000000
000000
000000
ENDCHAR
STARTCHAR ja
ENCODING 4867
SWIDTH 144 0
DWIDTH 24 0
BBX 24 24 0 -3
BITMAP
000000
1C01C0
1C01C0
0FFF80
0FFF80
007000
01FC00
03FE00
038E00
038E00
03FE00
01FC00
007000
0FFF80
0FFF80
0F0780
0F0780
0F0780
000780
000780
000780
000000
000000
000000
ENDCHAR
STARTCHAR jE
ENCODING 4868
SWIDTH 144 0
DWIDTH 24 0
BBX 24 24 0 -3
BITMAP
000000
780780
780780
1FFE00
1FFE00
01E000
03F000
0FFC00
0F3C00
0F0C00
0F3C00
0F3C00
03F000
03F000
038000
03E000
03FFC0
01FFC0
1FFCF0
1FFFF0
1C0FC0
000000
000000
000000
ENDCHAR
STARTCHAR j
ENCODING 4869
SWIDTH 144 0
DWIDTH 24 0
BBX 24 24 0 -3
BITMAP
000000
1C01C0
1C01C0
0FFF80
0FFF80
007000
01FC00
03FE00
038E00
0387F8
038FF8
038E38
01FC00
01FC00
01E000
01F000
01F000
007000
0FFF80
0FFF80
0F0780
000000
000000
000000
ENDCHAR
STARTCHAR jo
ENCODING 4870
SWIDTH 144 0
DWIDTH 24 0
BBX 24 24 0 -3
BITMAP
000000
1C01C0
1C01C0
0FFF80
0FFF80
007000
01FC00
03FE00
038E00
038E00
03FE00
01FC00
01FFC0
03FFC0
0381C0
0F0000
0F0000
0F0000
0F0000
0F0000
0F0000
000000
000000
000000
ENDCHAR
STARTCHAR jWa
ENCODING 4871
SWIDTH 144 0
DWIDTH 24 0
BBX 24 24 0 -3
BITMAP
000000
1C01C0
1C01C0
0FFF80
0FFF80
007000
01FC00
03FE00
038E00
038E00
03FE00
01FC00
007000
0FFF80
0FFF80
0F0780
0F0780
0F0780
000780
000780
000780
007FF8
01FFFE
01F03E
ENDCHAR
STARTCHAR ge
ENCODING 4872
SWIDTH 144 0
DWIDTH 24 0
BBX 24 24 0 -3
BITMAP
000000
000000
000000
000000
03FC00
03FC00
0F0E00
0F0E00
0F0E00
000E00
000E00
000E00
000E00
003E00
003C00
003C00
003C00
003C00
003C00
003C00
003C00
000000
000000
000000
ENDCHAR
STARTCHAR gu
ENCODING 4873
SWIDTH 144 0
DWIDTH 24 0
BBX 24 24 0 -3
BITMAP
000000
000000
000000
000000
0FF000
0FF000
1C3C00
1C3C00
1C3C00
003C00
003C00
003C00
003C00
007FF0
007FF0
0070F0
0070F0
007000
007000
007000
007000
000000
000000
000000
ENDCHAR
STARTCHAR gi
ENCODING 4874
SWIDTH 144 0
DWIDTH 24 0
BBX 24 24 0 -3
BITMAP
000000
000000
000000
000000
03FC00
03FC00
0F0E00
0F0E00
0F0E00
000E00
000E00
000E00
000E00
003E00
003C00
003C00
003C00
003C00
003CF0
003FF0
003FF0
000000
000000
000000
ENDCHAR
STARTCHAR ga
ENCODING 4875
SWIDTH 144 0
DWIDTH 24 0
BBX 24 24 0 -3
BITMAP
000000
000000
000000
000000
01FC00
01FC00
03FF80
03FF80
038780
000780
000780
000780
000780
000F80
000E00
003E00
01FE00
01FC00
03E000
03E000
038000
000000
000000
000000
ENDCHAR
STARTCHAR gE
ENCODING 4876
SWIDTH 144 0
DWIDTH 24 0
BBX 24 24 0 -3
BITMAP
000000
000000
000000
000000
03FC00
03FC00
0F0E00
0F0E00
0F0E00
000E00
000E00
000E00
000E00
003E00
003C00
003C00
003FC0
003FC0
003CF0
003FF0
003FC0
000000
000000
000000
ENDCHAR
STARTCHAR g
ENCODING 4877
SWIDTH 144 0
DWIDTH 24 0
BBX 24 24 0 -3
BITMAP
000000
000000
000000
000000
03FF80
03FF80
0F3DC0
0FFDC0
03F1C0
0001C0
0001C0
0001C0
000780
000780
000780
000780
000780
000780
000780
000780
000780
000000
000000
000000
ENDCHAR
STARTCHAR go
ENCODING 4878
SWIDTH 144 0
DWIDTH 24 0
BBX 24 24 0 -3
BITMAP
000000
000000
000000
003000
003000
003000
003000
01FE00
01FE00
038780
038780
038780
000780
000780
000600
000E00
000E00
000E00
000E00
000E00
000E00
000000
000000
000000
ENDCHAR
STARTCHAR gWe
ENCODING 4880
SWIDTH 144 0
DWIDTH 24 0
BBX 24 24 0 -3
BITMAP
000000
000000
000000
000000
0FF000
0FF000
1C3C00
1C3C00
1C3C00
003C00
003C00
003C00
003FF0
007FF8
007DB8
0071F0
0071F0
007000
007000
007000
007000
000000
000000
000000
ENDCHAR
STARTCHAR gWi
ENCODING 4882
SWIDTH 144 0
DWIDTH 24 0
BBX 24 24 0 -3
BITMAP
000000
000000
000000
000000
0FF000
0FF000
1C3C00
1C3C00
1C3C00
003C00
003DC0
003DC0
003DC0
007FC0
007FC0
0070F8
0070F8
007038
007000
007000
007000
000000
000000
000000
ENDCHAR
STARTCHAR gWa
ENCODING 4883
SWIDTH 144 0
DWIDTH 24 0
BBX 24 24 0 -3
BITMAP
000000
000000
000000
000000
01FC00
01FC00
038E00
038E00
038E00
000E00
01FF80
01FF80
01E780
01E780
000780
000780
000780
000780
000780
000780
000780
000000
000000
000000
ENDCHAR
STARTCHAR gWE
ENCODING 4884
SWIDTH 144 0
DWIDTH 24 0
BBX 24 24 0 -3
BITMAP
000000
000000
000000
000000
03FC00
03FC00
0F0E00
0F0E00
0F0E00
000E00
000E00
000E00
000E00
003E00
003C00
003C00
003C00
003C00
003FC0
003FF0
003CF0
01FFC0
03FFC0
038000
ENDCHAR
STARTCHAR gWu/gW
ENCODING 4885
SWIDTH 144 0
DWIDTH 24 0
BBX 24 24 0 -3
BITMAP
000000
000000
000000
000000
0FF000
0FF000
1C3DC0
1C3DC0
1C3DC0
003FF8
003FF8
003C38
003C00
007C00
007C00
007000
007000
007000
007000
007000
007000
000000
000000
000000
ENDCHAR
STARTCHAR Ge
ENCODING 4888
SWIDTH 144 0
DWIDTH 24 0
BBX 24 24 0 -3
BITMAP
000000
000000
000000
0381C0
03FFC0
01FF80
000000
01FE00
01FE00
038780
038780
038780
000780
000780
000600
000E00
000E00
000E00
000E00
000E00
000E00
000000
000000
000000
ENDCHAR
STARTCHAR Gu
ENCODING 4889
SWIDTH 144 0
DWIDTH 24 0
BBX 24 24 0 -3
BITMAP
000000
000000
000000
1C0E00
1FFE00
0FFC00
000000
0FF000
0FF000
1C3C00
1C3C00
1C3C00
003C00
003C00
003C00
007FF0
007FF0
0070F0
007000
007000
007000
000000
000000
000000
ENDCHAR
STARTCHAR Gi
ENCODING 4890
SWIDTH 144 0
DWIDTH 24 0
BBX 24 24 0 -3
BITMAP
000000
000000
000000
0F0780
0FFF80
03FE00
000000
03FC00
03FC00
0F0E00
0F0E00
0F0E00
000E00
000E00
000C00
003C00
003C00
003C00
003CF0
003FF0
003FF0
000000
000000
000000
ENDCHAR
STARTCHAR Ga
ENCODING 4891
SWIDTH 144 0
DWIDTH 24 0
BBX 24 24 0 -3
BITMAP
000000
000000
000000
0381C0
03FFC0
01FF80
000000
007E00
007E00
01FFC0
01FFC0
0181C0
0001C0
0001C0
0001C0
000F80
007F80
007E00
01F000
03F000
03E000
000000
000000
000000
ENDCHAR
STARTCHAR GE
ENCODING 4892
SWIDTH 144 0
DWIDTH 24 0
BBX 24 24 0 -3
BITMAP
000000
000000
000000
0F0780
0FFF80
03FE00
000000
03FC00
03FC00
0F0E00
0F0E00
0F0E00
000E00
000E00
000C00
003C00
003FC0
003FC0
003CF0
003FF0
003FC0
000000
000000
000000
ENDCHAR
STARTCHAR G
ENCODING 4893
SWIDTH 144 0
DWIDTH 24 0
BBX 24 24 0 -3
BITMAP
000000
000000
000000
0F0780
0FFF80
03FE00
000000
03FF80
03FF80
0F3DC0
0FFDC0
03F1C0
0001C0
0001C0
000180
000780
000780
000780
000780
000780
000780
000000
000000
000000
ENDCHAR
STARTCHAR Go
ENCODING 4894
SWIDTH 144 0
DWIDTH 24 0
BBX 24 24 0 -3
BITMAP
000000
000000
000000
038780
03FF80
01FE00
003000
01FE00
01FE00
038780
038780
038780
000780
000780
000600
000E00
000E00
000E00
000E00
000E00
000E00
000000
000000
000000
ENDCHAR
STARTCHAR GWa
ENCODING 4895
SWIDTH 144 0
DWIDTH 24 0
BBX 24 24 0 -3
BITMAP
0381C0
03FFC0
01FF80
000000
01FC00
01FC00
038E00
038E00
038E00
000E00
01FF80
01FF80
01E780
01E780
000780
000780
000780
000780
000780
000780
000780
000000
000000
000000
ENDCHAR
STARTCHAR Te
ENCODING 4896
SWIDTH 144 0
DWIDTH 24 0
BBX 24 24 0 -3
BITMAP
000000
000000
000000
000000
000000
000000
01FE00
03FF80
03B780
03B780
0FB7C0
0F31C0
0F31C0
0F31C0
0F31C0
0F31C0
0F31C0
0F31C0
0F31C0
0F31C0
0F31C0
000000
000000
000000
ENDCHAR
STARTCHAR Tu
ENCODING 4897
SWIDTH 144 0
DWIDTH 24 0
BBX 24 24 0 -3
BITMAP
000000
000000
000000
000000
000000
000000
0FF000
1FFC00
1DBC00
1DBC00
7DBE00
798E00
798E00
798FF8
798FF8
798E38
798E38
798E00
798E00
798E00
798E00
000000
000000
000000
ENDCHAR
STARTCHAR Ti
ENCODING 4898
SWIDTH 144 0
DWIDTH 24 0
BBX 24 24 0 -3
BITMAP
000000
000000
000000
000000
000000
000000
0FF000
1FFC00
1DBC00
1DBC00
7DBE00
798E00
798E00
798E00
798E00
798E00
798E00
798E00
798E38
798FF8
798FF8
000000
000000
000000
ENDCHAR
STARTCHAR Ta
ENCODING 4899
SWIDTH 144 0
DWIDTH 24 0
BBX 24 24 0 -3
BITMAP
000000
000000
000000
000000
01FE00
01FE00
03B780
03B780
03B780
0F31C0
0F31C0
0F31C0
0F31C0
0F31C0
0F31C0
0001C0
0001C0
0001C0
0001C0
0001C0
0001C0
000000
000000
000000
ENDCHAR
STARTCHAR TE
ENCODING 4900
SWIDTH 144 0
DWIDTH 24 0
BBX 24 24 0 -3
BITMAP
000000
000000
000000
000000
0FF000
0FF000
1DBC00
1DBC00
1DBC00
798E00
798E00
798E00
798E00
798E00
798E00
798E00
798FF0
798FF0
798E38
798FF8
798FF0
000000
000000
000000
ENDCHAR
STARTCHAR T
ENCODING 4901
SWIDTH 144 0
DWIDTH 24 0
BBX 24 24 0 -3
BITMAP
000000
000000
000000
000000
03FF80
03FF80
0FFFC0
0FFFC0
0C71C0
1C70F0
1C7CF0
1C7CF0
1C3CF0
1C3CF0
003C00
003C00
003C00
003C00
003C00
003C00
003C00
000000
000000
000000
ENDCHAR
STARTCHAR To
ENCODING 4902
SWIDTH 144 0
DWIDTH 24 0
BBX 24 24 0 -3
BITMAP
000000
000000
000000
000000
01FE00
01FE00
03B780
03B780
03B780
0F31C0
0F31C0
0F31C0
0F31C0
0F31C0
0F31C0
0F0000
0F0000
0F0000
0F0000
0F0000
0F0000
000000
000000
000000
ENDCHAR
STARTCHAR TWa
ENCODING 4903
SWIDTH 144 0
DWIDTH 24 0
BBX 24 24 0 -3
BITMAP
000000
000000
000000
000000
01FE00
01FE00
03B780
03B780
03B780
0F31C0
0F31C0
0F31C0
0F31C0
0F31C0
0F31C0
0001C0
0001C0
0001C0
0001C0
0001C0
0001C0
000FF8
003FFE
003C1E
ENDCHAR
STARTCHAR Ce
ENCODING 4904
SWIDTH 144 0
DWIDTH 24 0
BBX 24 24 0 -3
BITMAP
000000
000000
000000
000000
000000
000000
0FFC00
1FFE00
1FFE00
786780
F867C0
E061C0
E061C0
E061C0
E061C0
FC71F0
FF7DFE
EF6DDE
E36DC6
FF7DFE
FF7DFE
000000
000000
000000
ENDCHAR
STARTCHAR Cu
ENCODING 4905
SWIDTH 144 0
DWIDTH 24 0
BBX 24 24 0 -3
BITMAP
000000
000000
000000
000000
000000
000000
0FFC00
1FFE00
1FFE00
786780
F867C0
E061C0
E061FF
E061FF
E061C7
FC71F0
FF7DF8
EF6DD8
E36DC6
FF7DFE
FF7DFE
000000
000000
000000
ENDCHAR
STARTCHAR Ci
ENCODING 4906
SWIDTH 144 0
DWIDTH 24 0
BBX 24 24 0 -3
BITMAP
000000
000000
000000
000000
000000
000000
0FFC00
1FFE00
1FFE00
786780
F867C0
E061C0
E061C0
E061C0
E061C0
FC71C0
FF7DC0
EF6DC0
E36DC7
FF7DFF
FF7DFF
000000
000000
000000
ENDCHAR
STARTCHAR Ca
ENCODING 4907
SWIDTH 144 0
DWIDTH 24 0
BBX 24 24 0 -3
BITMAP
000000
000000
000000
03FF80
0FFFC0
0FFFC0
1C30F0
7C30F0
7830F0
7C3CF0
7F3EF0
7B36F0
79B6F0
7FBEF0
7FBEF0
0000F0
0001F8
0001D8
0001C6
0001FE
0001FE
000000
000000
000000
ENDCHAR
STARTCHAR CE
ENCODING 4908
SWIDTH 144 0
DWIDTH 24 0
BBX 24 24 0 -3
BITMAP
000000
000000
000000
000000
000000
000000
0FFC00
1FFE00
1FFE00
786780
F867FF
E061FF
E061F3
E061FF
E061DF
FC71C0
FF7DF8
EF6DF8
E36DC6
FF7DFE
FF7DFE
000000
000000
000000
ENDCHAR
STARTCHAR C
ENCODING 4909
SWIDTH 144 0
DWIDTH 24 0
BBX 24 24 0 -3
BITMAP
000000
000000
000000
000000
0FFE00
0FFE00
7FFF80
FFFFC0
E1E1C0
F9E1F0
FDF1F8
CDF198
FC71F8
FC71F8
007000
007C00
007E00
007600
007180
007F80
007F80
000000
000000
000000
ENDCHAR
STARTCHAR Co
ENCODING 4910
SWIDTH 144 0
DWIDTH 24 0
BBX 24 24 0 -3
BITMAP
000000
000000
000000
03FF80
0FFFC0
0FFFC0
0F60F0
1F60F0
1C60F0
1870F0
787CF8
786CD8
7866C6
787EFE
787CF8
7C0000
7F0000
7B0000
798000
7F8000
7F8000
000000
000000
000000
ENDCHAR
STARTCHAR CWa
ENCODING 4911
SWIDTH 144 0
DWIDTH 24 0
BBX 24 24 0 -3
BITMAP
000000
000000
000000
000000
03FF80
03FF80
0FFFC0
1FFFF0
1C30F0
7830F0
7C3CF0
7C3CF0
7B36F0
7BB6F0
79B6F0
7FBEF0
7FBEF0
0000F0
0001C0
0001C0
0001C0
000FF8
003FFE
003C1E
ENDCHAR
STARTCHAR Pe
ENCODING 4912
SWIDTH 144 0
DWIDTH 24 0
BBX 24 24 0 -3
BITMAP
000000
000000
000000
003C00
003C00
003C00
003C00
007E00
007E00
01E780
01E780
01E780
007E00
01FF80
01FF80
03E7C0
03E7C0
0381C0
0381C0
0381C0
0381C0
000000
000000
000000
ENDCHAR
STARTCHAR Pu
ENCODING 4913
SWIDTH 144 0
DWIDTH 24 0
BBX 24 24 0 -3
BITMAP
000000
000000
000000
01E000
01E000
01E000
01E000
03F000
03F000
0F3C00
0F3C00
0F3C00
03F000
0FFC00
0FFC00
1F3E00
1F3FF8
1C0FF8
1C0E38
1C0E38
1C0E00
000000
000000
000000
ENDCHAR
STARTCHAR Pi
ENCODING 4914
SWIDTH 144 0
DWIDTH 24 0
BBX 24 24 0 -3
BITMAP
000000
000000
000000
01E000
01E000
01E000
01E000
03F000
03F000
0F3C00
0F3C00
0F3C00
03F000
0FFC00
0FFC00
1F3E00
1F3E00
1C0E00
1C0E38
1C0FF8
1C0FF8
000000
000000
000000
ENDCHAR
STARTCHAR Pa
ENCODING 4915
SWIDTH 144 0
DWIDTH 24 0
BBX 24 24 0 -3
BITMAP
000000
000000
000000
003C00
003C00
003C00
003C00
007E00
007E00
01E780
01FF80
007E00
01FF80
03FFC0
03E7C0
0387C0
0387C0
0381C0
0001C0
0001C0
0001C0
000000
000000
000000
ENDCHAR
STARTCHAR PE
ENCODING 4916
SWIDTH 144 0
DWIDTH 24 0
BBX 24 24 0 -3
BITMAP
000000
000000
000000
01E000
01E000
01E000
01E000
03F000
03F000
0F3C00
0F3C00
0F3C00
03F000
0FFC00
0FFC00
1F3E00
1F3FF0
1C0FF0
1C0E38
1C0FF8
1C0FF0
000000
000000
000000
ENDCHAR
STARTCHAR P
ENCODING 4917
SWIDTH 144 0
DWIDTH 24 0
BBX 24 24 0 -3
BITMAP
000000
000000
000000
01E000
01E000
01E000
01E000
03F000
03F000
0F3FF0
0F3FF0
0F3CF0
03F000
0FFC00
0FFC00
1F3E00
1F3E00
1C0E00
1C0E00
1C0E00
1C0E00
000000
000000
000000
ENDCHAR
STARTCHAR Po
ENCODING 4918
SWIDTH 144 0
DWIDTH 24 0
BBX 24 24 0 -3
BITMAP
000000
000000
000000
003C00
003C00
003C00
003C00
007E00
007E00
01E780
01FF80
007E00
01FF80
03FFC0
03E7C0
0381C0
0381C0
0381C0
038000
038000
038000
000000
000000
000000
ENDCHAR
STARTCHAR PWa
ENCODING 4919
SWIDTH 144 0
DWIDTH 24 0
BBX 24 24 0 -3
BITMAP
000000
000000
000000
007000
007000
007000
007000
01FC00
01FC00
038E00
03FE00
01FC00
03FE00
0FFE00
0F8E00
0F0F80
0F0F80
0F0780
000780
000780
000780
003FF0
007FF8
007038
ENDCHAR
STARTCHAR Se
ENCODING 4920
SWIDTH 144 0
DWIDTH 24 0
BBX 24 24 0 -3
BITMAP
000000
000000
000000
000000
000000
000000
003C00
007E00
007E00
01E780
01E780
01E780
007E00
01FF80
01FF80
03E7C0
03E7C0
0381C0
0381C0
0381C0
0381C0
000000
000000
000000
ENDCHAR
STARTCHAR Su
ENCODING 4921
SWIDTH 144 0
DWIDTH 24 0
BBX 24 24 0 -3
BITMAP
000000
000000
000000
000000
000000
000000
01E000
03F000
03F000
0F3C00
0F3C00
0F3C00
03F000
0FFC00
0FFC00
1F3E00
1F3FF8
1C0FF8
1C0E38
1C0E38
1C0E00
000000
000000
000000
ENDCHAR
STARTCHAR Si
ENCODING 4922
SWIDTH 144 0
DWIDTH 24 0
BBX 24 24 0 -3
BITMAP
000000
000000
000000
000000
000000
000000
01E000
03F000
03F000
0F3C00
0F3C00
0F3C00
03F000
0FFC00
0FFC00
1F3E00
1F3E00
1C0E00
1C0E38
1C0FF8
1C0FF8
000000
000000
000000
ENDCHAR
STARTCHAR Sa
ENCODING 4923
SWIDTH 144 0
DWIDTH 24 0
BBX 24 24 0 -3
BITMAP
000000
000000
000000
000000
007000
007000
01FC00
03FE00
038E00
038E00
03FE00
01FC00
03FE00
0FFE00
0F8E00
0F0F80
0F0F80
0F0780
000780
000780
000780
000000
000000
000000
ENDCHAR
STARTCHAR SE
ENCODING 4924
SWIDTH 144 0
DWIDTH 24 0
BBX 24 24 0 -3
BITMAP
000000
000000
000000
000000
000000
000000
01E000
03F000
03F000
0F3C00
0F3C00
0F3C00
03F000
0FFC00
0FFC00
1F3E00
1F3FC0
1C0FC0
1C0EF0
1C0FF0
1C0FC0
000000
000000
000000
ENDCHAR
STARTCHAR S
ENCODING 4925
SWIDTH 144 0
DWIDTH 24 0
BBX 24 24 0 -3
BITMAP
000000
000000
000000
000000
000000
000000
01E000
03F000
03F000
0F3FF0
0F3FF0
0F3CF0
03F000
0FFC00
0FFC00
1F3E00
1F3E00
1C0E00
1C0E00
1C0E00
1C0E00
000000
000000
000000
ENDCHAR
STARTCHAR So
ENCODING 4926
SWIDTH 144 0
DWIDTH 24 0
BBX 24 24 0 -3
BITMAP
000000
000000
000000
000000
007000
007000
01FC00
03FE00
038E00
038E00
03FE00
01FC00
03FE00
0FFF80
0F8F80
0F0780
0F0780
0F0780
0F0000
0F0000
0F0000
000000
000000
000000
ENDCHAR
STARTCHAR SWa
ENCODING 4927
SWIDTH 144 0
DWIDTH 24 0
BBX 24 24 0 -3
BITMAP
000000
000000
000000
000000
007000
007000
01FC00
03FE00
038E00
038E00
03FE00
01FC00
03FE00
0FFE00
0F8E00
0F0F80
0F0F80
0F0780
000780
000780
000780
003FF0
007FF8
007038
ENDCHAR
STARTCHAR `Se/S2e
ENCODING 4928
SWIDTH 144 0
DWIDTH 24 0
BBX 24 24 0 -3
BITMAP
000000
000000
000000
000000
003F80
003F80
01E1C0
03E1C0
0381C0
0381C0
0381C0
0381C0
03FFC0
03FFC0
0381C0
0381C0
0381C0
0381C0
01FFC0
01FFC0
01E000
000000
000000
000000
ENDCHAR
STARTCHAR `Su/S2u
ENCODING 4929
SWIDTH 144 0
DWIDTH 24 0
BBX 24 24 0 -3
BITMAP
000000
000000
000000
000000
01FC00
01FC00
0F0E00
1F0E00
1C0E00
1C0E00
1C0E00
1C0E00
1FFE00
1FFFF8
1C0FF8
1C0E38
1C0E38
1C0E00
0FFE00
0FFE00
0F0000
000000
000000
000000
ENDCHAR
STARTCHAR `Si/S2i
ENCODING 4930
SWIDTH 144 0
DWIDTH 24 0
BBX 24 24 0 -3
BITMAP
000000
000000
000000
7FE000
FFF000
E07000
E07000
FFF000
FFF000
E07000
E07000
E07000
7FF000
7FF000
007000
007000
007000
007000
0071C0
007FC0
007FC0
000000
000000
000000
ENDCHAR
STARTCHAR `Sa/S2a
ENCODING 4931
SWIDTH 144 0
DWIDTH 24 0
BBX 24 24 0 -3
BITMAP
000000
000000
000000
7FE000
FFF000
E07000
E07000
FFF000
FFF000
E07000
E07000
E07000
7FF000
7FF000
007000
007000
007000
007000
007000
007000
007000
000000
000000
000000
ENDCHAR
STARTCHAR `SE/S2E
ENCODING 4932
SWIDTH 144 0
DWIDTH 24 0
BBX 24 24 0 -3
BITMAP
000000
000000
000000
7FE000
FFF000
E07000
E07000
FFF000
FFF000
E07000
E07000
E07000
7FF000
7FF000
007000
007000
007F80
007F80
0071C0
007FC0
007F80
000000
000000
000000
ENDCHAR
STARTCHAR `S/S2
ENCODING 4933
SWIDTH 144 0
DWIDTH 24 0
BBX 24 24 0 -3
BITMAP
000000
003C00
003C00
003C00
003C00
003C00
01FF80
03FFC0
03E1C0
0381C0
0381C0
0381C0
03FFC0
03FFC0
0381C0
0381C0
0381C0
0381C0
01FFC0
01FFC0
01E000
000000
000000
000000
ENDCHAR
STARTCHAR `So/S2o
ENCODING 4934
SWIDTH 144 0
DWIDTH 24 0
BBX 24 24 0 -3
BITMAP
000000
000000
000000
007E00
01FF80
01E780
0381C0
03FFC0
03FFC0
0381C0
03E7C0
03E7C0
01FF80
01FF80
007E00
01F000
03F000
038000
038000
038000
038000
000000
000000
000000
ENDCHAR
STARTCHAR fe
ENCODING 4936
SWIDTH 144 0
DWIDTH 24 0
BBX 24 24 0 -3
BITMAP
000000
000000
000000
000000
000E00
000E00
000600
000E00
000E00
003C00
007C00
007000
01E000
03F000
03F000
0F3C00
0F3C30
0F0C30
03FFF0
03FFF0
007FB0
000000
000000
000000
ENDCHAR
STARTCHAR fu
ENCODING 4937
SWIDTH 144 0
DWIDTH 24 0
BBX 24 24 0 -3
BITMAP
000000
000000
000000
000000
000000
000000
000C00
003C00
003C00
007000
01F000
01E000
038000
0FF000
0FF000
0F30C0
0F3FC0
0F3FC0
0FFE00
0FFE00
007000
01E000
01E000
01E000
ENDCHAR
STARTCHAR fi
ENCODING 4938
SWIDTH 144 0
DWIDTH 24 0
BBX 24 24 0 -3
BITMAP
000000
000000
000000
000000
003C00
003C00
000C00
003C00
003C00
007000
01F000
01E000
038000
0FE1C0
0FE1C0
1C70C0
1C71C0
1C31C0
0FFF80
0FFF80
03FC00
000000
000000
000000
ENDCHAR
STARTCHAR fa
ENCODING 4939
SWIDTH 144 0
DWIDTH 24 0
BBX 24 24 0 -3
BITMAP
000000
000000
000000
000000
000000
000000
006000
007000
007000
01E000
01E000
018000
038000
0F8000
0F8000
1DE000
1DF180
1C7180
0FFFC0
0FFFC0
0070C0
007000
007000
007000
ENDCHAR
STARTCHAR fE
ENCODING 4940
SWIDTH 144 0
DWIDTH 24 0
BBX 24 24 0 -3
BITMAP
000000
000000
000000
003C00
003C00
000C00
003C00
007C00
007000
01E000
03E000
038000
0FE000
1FF000
1C7000
1C31C0
1FFFF0
0FFFB0
01FE30
01FFF0
0007C0
000000
000000
000000
ENDCHAR
STARTCHAR f
ENCODING 4941
SWIDTH 144 0
DWIDTH 24 0
BBX 24 24 0 -3
BITMAP
000000
000000
000000
000000
000000
000000
03FC00
0FFE00
0F3E00
0C0E00
1C0E00
1C0000
1C0000
1FE000
1FE000
1C7E00
1DFE00
1DF600
0F7000
0F7000
007000
007000
007000
007000
ENDCHAR
STARTCHAR fo
ENCODING 4942
SWIDTH 144 0
DWIDTH 24 0
BBX 24 24 0 -3
BITMAP
000000
000000
000000
000000
01FF80
01FF80
03FCC0
0FFFC0
0F0FC0
1C0000
1C0000
1C0000
1C0000
1F8000
1F8000
1F6000
1F71C0
1C31C0
0F7780
0FFF80
03FF80
000000
000000
000000
ENDCHAR
STARTCHAR fWa
ENCODING 4943
SWIDTH 144 0
DWIDTH 24 0
BBX 24 24 0 -3
BITMAP
000000
000000
000000
000000
006000
006000
007000
01F000
01E000
018000
038000
038000
0F8000
1FE000
1DE000
1C7180
1FFFC0
0FFFC0
0070C0
0070C0
007000
03FE00
0FFF80
0F0780
ENDCHAR
STARTCHAR pe
ENCODING 4944
SWIDTH 144 0
DWIDTH 24 0
BBX 24 24 0 -3
BITMAP
000000
000000
000000
0381C0
03FFC0
03FFC0
0FFFF0
0FFFF0
0F3CF0
003C00
003C00
003C00
003C00
003C00
003C00
003C00
003C00
003C00
003C00
003C00
003C00
000000
000000
000000
ENDCHAR
STARTCHAR pu
ENCODING 4945
SWIDTH 144 0
DWIDTH 24 0
BBX 24 24 0 -3
BITMAP
000000
000000
000000
0381C0
03FFC0
03FFC0
0FFFF0
0FFFF0
0F3CF0
003C00
003C00
003C00
003C00
003FF0
003FF0
003CF0
003CF0
003C00
003C00
003C00
003C00
000000
000000
000000
ENDCHAR
STARTCHAR pi
ENCODING 4946
SWIDTH 144 0
DWIDTH 24 0
BBX 24 24 0 -3
BITMAP
000000
000000
000000
0381C0
03FFC0
03FFC0
0FFFF0
0FFFF0
0F3CF0
003C00
003C00
003C00
003C00
003C00
003C00
003C00
003C00
003C00
003CF0
003FF0
003FF0
000000
000000
000000
ENDCHAR
STARTCHAR pa
ENCODING 4947
SWIDTH 144 0
DWIDTH 24 0
BBX 24 24 0 -3
BITMAP
000000
000000
000000
0381C0
03FFC0
03FFC0
0FFFF0
0FFFF0
0F3CF0
003C00
003C00
003C00
003C00
003C00
003C00
007000
01F000
01E000
038000
038000
030000
000000
000000
000000
ENDCHAR
STARTCHAR pE
ENCODING 4948
SWIDTH 144 0
DWIDTH 24 0
BBX 24 24 0 -3
BITMAP
000000
000000
000000
0381C0
03FFC0
03FFC0
0FFFF0
0FFFF0
0F3CF0
003C00
003C00
003C00
003C00
003C00
003C00
003C00
003FC0
003FC0
003CF0
003FF0
003FC0
000000
000000
000000
ENDCHAR
STARTCHAR p
ENCODING 4949
SWIDTH 144 0
DWIDTH 24 0
BBX 24 24 0 -3
BITMAP
000000
000000
000000
0381C0
03FFC0
03FFC0
0FFFF0
0FFFF0
0F3CF0
003C00
003F80
003F80
000780
000780
000780
000780
000780
000780
000780
000780
000780
000000
000000
000000
ENDCHAR
STARTCHAR po
ENCODING 4950
SWIDTH 144 0
DWIDTH 24 0
BBX 24 24 0 -3
BITMAP
000000
000000
000000
0381C0
03FFC0
03FFC0
0FFFF0
0FFFF0
0F3CF0
003C00
003C00
003C00
007000
007000
007000
01E000
01E000
01E000
01E000
01E000
01E000
000000
000000
000000
ENDCHAR
STARTCHAR pWa
ENCODING 4951
SWIDTH 144 0
DWIDTH 24 0
BBX 24 24 0 -3
BITMAP
000000
000000
000000
0381C0
03FFC0
03FFC0
0FFFF0
0FFFF0
0F3CF0
003C00
003C00
003C00
003C00
003C00
003C00
003C00
003C00
003C00
003C00
003C00
003C00
03FFC0
0FFFF0
0F81F0
ENDCHAR
STARTCHAR mYa
ENCODING 4952
SWIDTH 144 0
DWIDTH 24 0
BBX 24 24 0 -3
BITMAP
0F80F8
0FFFF8
01FFC0
003E00
03FFF8
03FFF8
0FFFF8
1FFFF8
1C3618
183618
187E18
186C18
1FEFF8
1FEFF8
0F87F8
000030
000030
000030
0000C0
0000C0
0000C0
0000C0
0000C0
000000
ENDCHAR
STARTCHAR rYa
ENCODING 4953
SWIDTH 144 0
DWIDTH 24 0
BBX 24 24 0 -3
BITMAP
000000
0F00F0
0F00F0
03FFC0
03FFC0
003C00
003C00
003C00
003C00
007000
01F000
01F000
03E000
0FE000
0F8000
0F0780
0F07C0
0F07C0
0F81C0
0FFFC0
03FF80
01FE00
01FE00
000000
ENDCHAR
STARTCHAR fYa
ENCODING 4954
SWIDTH 144 0
DWIDTH 24 0
BBX 24 24 0 -3
BITMAP
000000
0F00F0
0F00F0
03FFC0
03FFC0
003C00
000C00
003C00
003C00
007000
01F000
01E000
038000
0FE1C0
0FE1C0
1C70C0
1C71C0
1C31C0
0FFF80
0FFF80
03FC00
000000
000000
000000
ENDCHAR
STARTCHAR Space
ENCODING 4960
SWIDTH 144 0
DWIDTH 24 0
BBX 24 24 0 -3
BITMAP
000000
000000
000000
000000
000000
000000
000000
000000
000000
000000
000000
000000
000000
000000
000000
000000
000000
000000
000000
000000
000000
000000
000000
000000
ENDCHAR
STARTCHAR Ethiopic-Wordspace
ENCODING 4961
SWIDTH 144 0
DWIDTH 24 0
BBX 24 24 0 -3
BITMAP
000000
000000
000000
000000
000000
000000
000000
007000
007000
007000
007000
000000
000000
007000
007000
007000
007000
000000
000000
000000
000000
000000
000000
000000
ENDCHAR
STARTCHAR Ethiopic-Full-Stop
ENCODING 4962
SWIDTH 144 0
DWIDTH 24 0
BBX 24 24 0 -3
BITMAP
000000
000000
000000
000000
000000
000000
000000
01E780
01E780
01E780
01E780
000000
000000
01E780
01E780
01E780
01E780
000000
000000
000000
000000
000000
000000
000000
ENDCHAR
STARTCHAR Ethiopic-Comma
ENCODING 4963
SWIDTH 144 0
DWIDTH 24 0
BBX 24 24 0 -3
BITMAP
000000
000000
000000
000000
000000
000000
01FF80
01FF80
000000
003C00
003C00
003C00
000000
003C00
003C00
003C00
003C00
000000
000000
000000
000000
000000
000000
000000
ENDCHAR
STARTCHAR Ethiopic-Semicolon
ENCODING 4964
SWIDTH 144 0
DWIDTH 24 0
BBX 24 24 0 -3
BITMAP
000000
000000
000000
000000
000000
000000
01FF80
01FF80
000000
003C00
003C00
003C00
000000
003C00
003C00
003C00
003C00
000000
01FF80
01FF80
000000
000000
000000
000000
ENDCHAR
STARTCHAR Ethiopic-Colon
ENCODING 4965
SWIDTH 144 0
DWIDTH 24 0
BBX 24 24 0 -3
BITMAP
000000
000000
000000
000000
000000
000000
01E000
01E000
01E000
000000
0FFC00
0FFC00
000000
01E000
01E000
01E000
01E000
000000
000000
000000
000000
000000
000000
000000
ENDCHAR
STARTCHAR Ethiopic-Preface-Colon
ENCODING 4966
SWIDTH 144 0
DWIDTH 24 0
BBX 24 24 0 -3
BITMAP
000000
000000
000000
000000
000000
000000
01E000
01E000
01E000
000000
007E00
007E00
000000
01E000
01E000
01E000
01E000
000000
000000
000000
000000
000000
000000
000000
ENDCHAR
STARTCHAR Ethiopic-Question-Mark
ENCODING 4967
SWIDTH 144 0
DWIDTH 24 0
BBX 24 24 0 -3
BITMAP
000000
000000
000000
000000
003C00
003C00
003C00
003C00
000000
000000
003C00
003C00
003C00
003C00
000000
000000
003C00
003C00
003C00
003C00
000000
000000
000000
000000
ENDCHAR
STARTCHAR Ethiopic-End-Paragraph
ENCODING 4968
SWIDTH 144 0
DWIDTH 24 0
BBX 24 24 0 -3
BITMAP
000000
000000
000000
000000
003C00
003C00
003C00
03BDC0
0381C0
0381C0
03BDC0
003C00
003C00
03BDC0
0381C0
0381C0
03BDC0
003C00
003C00
003C00
000000
000000
000000
000000
ENDCHAR
STARTCHAR Ethiopic-1
ENCODING 4969
SWIDTH 144 0
DWIDTH 24 0
BBX 24 24 0 -3
BITMAP
000000
000000
000000
0F01C0
0FFFC0
03FF80
000000
003C00
003C00
003C00
007C00
007000
01FE00
03FF80
038780
038780
03FF80
01FE00
000000
03FF80
03FF80
0F01C0
0F01C0
000000
ENDCHAR
STARTCHAR Ethiopic-2
ENCODING 4970
SWIDTH 144 0
DWIDTH 24 0
BBX 24 24 0 -3
BITMAP
000000
000000
000000
0380F0
03FFF0
01FFC0
000000
003E00
003E00
007780
01F780
01E780
01FE00
01FE00
01E000
01FE00
01FF80
007780
003E00
01FFC0
01FFC0
0380F0
0380F0
000000
ENDCHAR
STARTCHAR Ethiopic-3
ENCODING 4971
SWIDTH 144 0
DWIDTH 24 0
BBX 24 24 0 -3
BITMAP
000000
000000
000000
000000
0381C0
0381C0
01FF80
01FF80
000000
01FF80
01FF80
01E780
01E000
01E000
01E000
01E000
01E000
01E000
000000
01FF80
01FF80
0381C0
0381C0
000000
ENDCHAR
STARTCHAR Ethiopic-4
ENCODING 4972
SWIDTH 144 0
DWIDTH 24 0
BBX 24 24 0 -3
BITMAP
000000
000000
000000
000000
0381C0
0381C0
01FF80
01FF80
000000
007E00
01FF80
01E780
01E780
01E780
01E780
01E780
01FF80
007E00
000000
01FF80
01FF80
0381C0
0381C0
000000
ENDCHAR
STARTCHAR Ethiopic-5
ENCODING 4973
SWIDTH 144 0
DWIDTH 24 0
BBX 24 24 0 -3
BITMAP
000000
000000
000000
0F01C0
0FFFC0
03FF80
000000
007000
007000
007000
01FF80
01FF80
03E780
03E780
038000
038780
03FF80
01FF80
000000
03FF80
03FF80
0F01C0
0F01C0
000000
ENDCHAR
STARTCHAR Ethiopic-6
ENCODING 4974
SWIDTH 144 0
DWIDTH 24 0
BBX 24 24 0 -3
BITMAP
000000
0F01C0
0F01C0
03FF80
03FF80
000000
01FC00
03FE00
03FE00
038E00
038E00
000E00
003C00
003E00
003E00
007780
007F80
007E00
000000
03FF80
03FF80
0F01C0
0F01C0
000000
ENDCHAR
STARTCHAR Ethiopic-7
ENCODING 4975
SWIDTH 144 0
DWIDTH 24 0
BBX 24 24 0 -3
BITMAP
000000
0F01C0
0F01C0
03FF80
03FF80
000000
01FC00
03FE00
03FE00
038E00
038E00
000E00
003C00
003C00
003000
007180
007F80
007F80
000000
03FF80
03FF80
0F01C0
0F01C0
000000
ENDCHAR
STARTCHAR Ethiopic-8
ENCODING 4976
SWIDTH 144 0
DWIDTH 24 0
BBX 24 24 0 -3
BITMAP
000000
000000
000000
0F00F0
0FFFF0
03FFC0
000000
03FFC0
03FFC0
03BDC0
03BDC0
003C00
003C00
003C00
003C00
03FFC0
03FFC0
0381C0
000000
03FFC0
03FFC0
0F00F0
0F00F0
000000
ENDCHAR
STARTCHAR Ethiopic-9
ENCODING 4977
SWIDTH 144 0
DWIDTH 24 0
BBX 24 24 0 -3
BITMAP
000000
000000
000000
0381C0
03FFC0
01FF80
000000
000000
000000
01E780
01E780
01E780
01FF80
01FF80
01E780
01E600
01FE00
007C00
000000
01FF80
01FF80
0381C0
0381C0
000000
ENDCHAR
STARTCHAR Ethiopic-10
ENCODING 4978
SWIDTH 144 0
DWIDTH 24 0
BBX 24 24 0 -3
BITMAP
000000
000000
000000
000000
0381C0
0381C0
01FF80
01FF80
000000
003C00
003C00
003C00
003C00
003C00
003C00
003C00
003C00
003C00
000000
01FF80
01FF80
0381C0
0381C0
000000
ENDCHAR
STARTCHAR Ethiopic-20
ENCODING 4979
SWIDTH 144 0
DWIDTH 24 0
BBX 24 24 0 -3
BITMAP
000000
000000
000000
000000
0F00F0
0F00F0
03FFC0
03FFC0
000000
01FF80
01FF80
01BD80
003C00
007E00
007E00
01E780
01E780
01E780
000000
03FFC0
03FFC0
0F00F0
0F00F0
000000
ENDCHAR
STARTCHAR Ethiopic-30
ENCODING 4980
SWIDTH 144 0
DWIDTH 24 0
BBX 24 24 0 -3
BITMAP
000000
000000
000000
000000
0F00F0
0F00F0
03FFC0
03FFC0
000000
01BF80
03BFC0
03BDC0
03BDC0
03BDC0
03BDC0
03BDC0
03FDC0
01F1C0
000000
03FFC0
03FFC0
0F00F0
0F00F0
000000
ENDCHAR
STARTCHAR Ethiopic-40
ENCODING 4981
SWIDTH 144 0
DWIDTH 24 0
BBX 24 24 0 -3
BITMAP
000000
000000
000000
0F00F0
0FFFF0
03FFC0
000000
03BDC0
03BDC0
03BDC0
03BDC0
03BDC0
01FFC0
01FFC0
0001C0
0001C0
0001C0
0001C0
000000
03FFC0
03FFC0
0F00F0
0F00F0
000000
ENDCHAR
STARTCHAR Ethiopic-50
ENCODING 4982
SWIDTH 144 0
DWIDTH 24 0
BBX 24 24 0 -3
BITMAP
000000
000000
000000
0381C0
03FFC0
01FF80
000000
007F80
007F80
01E780
01FF80
007F80
000780
000F80
000E00
000E00
000E00
000E00
000000
01FF80
01FF80
0381C0
0381C0
000000
ENDCHAR
STARTCHAR Ethiopic-60
ENCODING 4983
SWIDTH 144 0
DWIDTH 24 0
BBX 24 24 0 -3
BITMAP
000000
000000
000000
0F00F0
0FFFF0
03FFC0
000000
03FFC0
03FFC0
03BDC0
03BDC0
003C00
003E00
003E00
000E00
03FFC0
03FFC0
0381C0
000000
03FFC0
03FFC0
0F00F0
0F00F0
000000
ENDCHAR
STARTCHAR Ethiopic-70
ENCODING 4984
SWIDTH 144 0
DWIDTH 24 0
BBX 24 24 0 -3
BITMAP
000000
000000
000000
000000
0381C0
0381C0
01FF80
01FF80
000000
007F80
01FFC0
01EDC0
01EF80
01EF80
01E000
01E780
01FF80
007F80
000000
01FF80
01FF80
0381C0
0381C0
000000
ENDCHAR
STARTCHAR Ethiopic-80
ENCODING 4985
SWIDTH 144 0
DWIDTH 24 0
BBX 24 24 0 -3
BITMAP
000000
000000
000000
000000
1C00F0
1C00F0
0FFFC0
0FFFC0
000000
0FFFC0
0FFFC0
0DEEC0
01EE00
01EE00
01EE00
01EE00
01EE00
01EE00
000000
0FFFC0
0FFFC0
1C00F0
1C00F0
000000
ENDCHAR
STARTCHAR Ethiopic-90
ENCODING 4986
SWIDTH 144 0
DWIDTH 24 0
BBX 24 24 0 -3
BITMAP
000000
0F01C0
0F01C0
03FF80
03FF80
000000
01FE00
01FE00
01EE00
003C00
003E00
003E00
000E00
003E00
003C00
003C00
003C00
003C00
000000
03FF80
03FF80
0F01C0
0F01C0
000000
ENDCHAR
STARTCHAR Ethiopic-100
ENCODING 4987
SWIDTH 144 0
DWIDTH 24 0
BBX 24 24 0 -3
BITMAP
000000
000000
000000
0381C0
03FFC0
01FF80
000000
007E00
007E00
01E780
01FF80
01FE00
01E000
01F000
007000
007000
007000
007000
000000
01FF80
01FF80
0381C0
0381C0
000000
ENDCHAR
STARTCHAR Ethiopic-10000
ENCODING 4988
SWIDTH 144 0
DWIDTH 24 0
BBX 24 24 0 -3
BITMAP
000000
000000
000000
1C0038
1FFFF8
0FFFF0
000000
0FE7F0
0FE7F0
1C7E38
1FFFF8
1FEFF0
1C0E00
1F0F80
0F0780
0F0780
0F0780
0F0780
000000
0FFFF0
0FFFF0
1C0038
1C0038
000000
ENDCHAR
STARTCHAR `qe/q2e
ENCODING 4992
SWIDTH 144 0
DWIDTH 24 0
BBX 24 24 0 -3
BITMAP
03E7C0
03E7C0
01E780
007E00
007E00
003C00
003C00
007FC0
007FC0
03BCF0
0FBCF0
0F3CF0
0F3DC0
0FFFC0
03FE00
003C00
003C00
003C00
003C00
003C00
003C00
000000
000000
000000
ENDCHAR
STARTCHAR `qu/q2u
ENCODING 4993
SWIDTH 144 0
DWIDTH 24 0
BBX 24 24 0 -3
BITMAP
0F8F80
0F8F80
038E00
01FC00
01FC00
007000
007000
01FF80
01FF80
0F71C0
1F71C0
1C71C0
1C7780
1FFF80
0FFC00
007000
007FC0
007FC0
0071C0
0071C0
007000
000000
000000
000000
ENDCHAR
STARTCHAR `qi/q2i
ENCODING 4994
SWIDTH 144 0
DWIDTH 24 0
BBX 24 24 0 -3
BITMAP
0F8F80
0F8F80
038E00
01FC00
01FC00
007000
007000
01FF80
01FF80
0F71C0
1F71C0
1C71C0
1C7780
1FFF80
0FFC00
007000
007000
007000
0071C0
007FC0
007FC0
000000
000000
000000
ENDCHAR
STARTCHAR `qa/q2a
ENCODING 4995
SWIDTH 144 0
DWIDTH 24 0
BBX 24 24 0 -3
BITMAP
03E7C0
03E7C0
01E780
007E00
007E00
003C00
003C00
007FC0
007FC0
03BCF0
0FBCF0
0F3CF0
0F3DC0
0FFFC0
03FE00
003C00
007C00
007000
01E000
03E000
038000
000000
000000
000000
ENDCHAR
STARTCHAR `qE/q2E
ENCODING 4996
SWIDTH 144 0
DWIDTH 24 0
BBX 24 24 0 -3
BITMAP
0F8F80
0F8F80
038E00
01FC00
01FC00
007000
007000
01FF80
01FF80
0F71C0
1F71C0
1C71C0
1C7780
1FFF80
0FFC00
007000
007F80
007F80
0071C0
007FC0
007F80
000000
000000
000000
ENDCHAR
STARTCHAR `q/q2
ENCODING 4997
SWIDTH 144 0
DWIDTH 24 0
BBX 24 24 0 -3
BITMAP
1F3E00
1F3E00
0F3C00
03F000
03F000
01E000
01FC00
01FC00
003C00
007FC0
03FFF0
03BCF0
0F3CF0
0F3DF0
0F3DC0
03FE00
03FE00
003C00
003C00
003C00
003C00
000000
000000
000000
ENDCHAR
STARTCHAR `qo/q2o
ENCODING 4998
SWIDTH 144 0
DWIDTH 24 0
BBX 24 24 0 -3
BITMAP
03E7C0
03E7C0
01E780
007E00
007E00
006600
006E00
007E00
007000
01FF80
0FFFC0
0F71C0
1C71C0
1C77C0
1C7780
0FFC00
0FFC00
007000
007000
007000
007000
000000
000000
000000
ENDCHAR
STARTCHAR mWe
ENCODING 5000
SWIDTH 144 0
DWIDTH 24 0
BBX 24 24 0 -3
BITMAP
000000
000000
000000
000000
000000
000000
000000
1FFFC0
1FFFC0
7FFFC0
7FFFC0
618CC0
E1BCFF
E3BCFF
C3B0DB
CF31DF
FF3FDF
FC3F80
FC3E00
FC3E00
000000
000000
000000
000000
ENDCHAR
STARTCHAR bWe
ENCODING 5001
SWIDTH 144 0
DWIDTH 24 0
BBX 24 24 0 -3
BITMAP
000000
000000
000000
000000
03E000
03E000
0FF000
1FFC00
1C3C00
1C3C00
1C3C00
1C3C00
1C3FF8
1C3FFE
1C3CDE
1C3CF8
1C3CF8
1C3C00
1C3C00
1C3C00
1C3C00
000000
000000
000000
ENDCHAR
STARTCHAR GWe
ENCODING 5002
SWIDTH 144 0
DWIDTH 24 0
BBX 24 24 0 -3
BITMAP
1C0E00
1FFE00
0FFC00
000000
0FF000
0FF000
1C3C00
1C3C00
1C3C00
003C00
003C00
003C00
003FF0
007FF8
007DB8
0071F0
0071F0
007000
007000
007000
007000
000000
000000
000000
ENDCHAR
STARTCHAR fWe
ENCODING 5003
SWIDTH 144 0
DWIDTH 24 0
BBX 24 24 0 -3
BITMAP
000000
000000
000000
000000
000E00
000E00
000600
000E00
000E00
003FF8
007FFE
0070DE
01E0F8
03F0F8
03F000
0F3C00
0F3C30
0F0C30
03FFF0
03FFF0
007FB0
000000
000000
000000
ENDCHAR
STARTCHAR pWe
ENCODING 5004
SWIDTH 144 0
DWIDTH 24 0
BBX 24 24 0 -3
BITMAP
000000
000000
000000
0381C0
03FFC0
03FFC0
0FFFF0
0FFFF0
0F3CF0
003C00
003C00
003C00
003FF8
003FFE
003CDE
003CF8
003CF8
003C00
003C00
003C00
003C00
000000
000000
000000
ENDCHAR
STARTCHAR `ke/k2e
ENCODING 5008
SWIDTH 144 0
DWIDTH 24 0
BBX 24 24 0 -3
BITMAP
000000
000C30
000C30
003C38
0F3EF8
0F0EF0
0F3FC0
0FFFC0
0FFF80
0FE1C0
0FE1C0
01E1C0
01E1C0
01E1C0
01E1C0
01E1C0
01E1C0
01E1C0
01E1C0
01E1C0
01E1C0
000000
000000
000000
ENDCHAR
STARTCHAR `ku/k2u
ENCODING 5009
SWIDTH 144 0
DWIDTH 24 0
BBX 24 24 0 -3
BITMAP
000000
006180
006180
01E1C0
79F7C0
787780
79FE00
7FFE00
7FFC00
7F0E00
7F0E00
0F0E00
0F0E00
0F0FF8
0F0FF8
0F0E38
0F0E38
0F0E00
0F0E00
0F0E00
0F0E00
000000
000000
000000
ENDCHAR
STARTCHAR `ki/k2i
ENCODING 5010
SWIDTH 144 0
DWIDTH 24 0
BBX 24 24 0 -3
BITMAP
000000
006180
006180
01E1C0
79F7C0
787780
79FE00
7FFE00
7FFC00
7F0E00
7F0E00
0F0E00
0F0E00
0F0E00
0F0E00
0F0E00
0F0E00
0F0E00
0F0E38
0F0FF8
0F0FF8
000000
000000
000000
ENDCHAR
STARTCHAR `ka/k2a
ENCODING 5011
SWIDTH 144 0
DWIDTH 24 0
BBX 24 24 0 -3
BITMAP
000000
000C30
000C30
003C38
0F3EF8
0F0EF0
0F3FC0
0FFFC0
0FFF80
0FE1C0
0FE1C0
01E1C0
01E1C0
01E1C0
01E1C0
01E1C0
01E1C0
0001C0
0001C0
0001C0
0001C0
000000
000000
000000
ENDCHAR
STARTCHAR `kE/k2E
ENCODING 5012
SWIDTH 144 0
DWIDTH 24 0
BBX 24 24 0 -3
BITMAP
000000
006180
006180
01E1C0
79F7C0
787780
79FE00
7FFE00
7FFC00
7F0E00
7F0E00
0F0E00
0F0E00
0F0E00
0F0E00
0F0E00
0F0FF0
0F0FF0
0F0E38
0F0FF8
0F0FF0
000000
000000
000000
ENDCHAR
STARTCHAR `k/k2
ENCODING 5013
SWIDTH 144 0
DWIDTH 24 0
BBX 24 24 0 -3
BITMAP
000000
000C30
000C30
003C38
0F3EF8
0F0EF0
0F3FC0
0F7FC0
0F7F80
0FE1C0
0FE1C0
0381C0
03E1C0
03E1C0
01E1C0
01E1C0
01E1C0
01E1C0
01E1C0
01E1C0
01E1C0
000000
000000
000000
ENDCHAR
STARTCHAR `ko/k2o
ENCODING 5014
SWIDTH 144 0
DWIDTH 24 0
BBX 24 24 0 -3
BITMAP
000000
000C30
000C30
003C38
0F3EF8
0F0EF0
0F3FC0
0FFFC0
0FFF80
0FE1C0
0FE1C0
01E1C0
01E1C0
01E1C0
01E1C0
01E1C0
01E1C0
01E000
01E000
01E000
01E000
000000
000000
000000
ENDCHAR
STARTCHAR mWi
ENCODING 5016
SWIDTH 144 0
DWIDTH 24 0
BBX 24 24 0 -3
BITMAP
000000
000000
000000
7FFE00
7FFFB8
7FFFB8
E361B8
E361F8
C361F8
C3619F
C37F9F
C37F87
FF3E00
FF3E00
7F0000
030000
0F0000
0F0000
1C0000
7C0000
780000
000000
000000
000000
ENDCHAR
STARTCHAR bWi
ENCODING 5017
SWIDTH 144 0
DWIDTH 24 0
BBX 24 24 0 -3
BITMAP
000000
000000
000000
000000
03E000
03E000
0FF000
1FFCF0
1C3CF0
1C3CF0
1C3FF0
1C3FF0
1C3C3E
1C3C3E
1C3C1E
1C3C00
1C3C00
1C3C00
1C3C00
1C3C00
1C3C00
000000
000000
000000
ENDCHAR
STARTCHAR GWi
ENCODING 5018
SWIDTH 144 0
DWIDTH 24 0
BBX 24 24 0 -3
BITMAP
1C0E00
1FFE00
0FFC00
000000
0FF000
0FF000
1C3C00
1C3C00
1C3C00
003C00
003DC0
003DC0
003DC0
007FC0
007FC0
0070F8
0070F8
007038
007000
007000
007000
000000
000000
000000
ENDCHAR
STARTCHAR fWi
ENCODING 5019
SWIDTH 144 0
DWIDTH 24 0
BBX 24 24 0 -3
BITMAP
000000
000000
000000
000000
000E00
000E00
0006F0
000EF0
000EF0
003FF0
007FFE
00703E
01E01E
03F01E
03F000
0F3C00
0F3C30
0F0C30
03FFF0
03FFF0
007FB0
000000
000000
000000
ENDCHAR
STARTCHAR pWi
ENCODING 5020
SWIDTH 144 0
DWIDTH 24 0
BBX 24 24 0 -3
BITMAP
000000
000000
000000
0381C0
03FFC0
03FFC0
0FFFF0
0FFFF0
0F3CF0
003C00
003CF0
003CF0
003CF0
003FF0
003FF0
003C38
003C38
003C38
003C00
003C00
003C00
000000
000000
000000
ENDCHAR
STARTCHAR Xe
ENCODING 5024
SWIDTH 144 0
DWIDTH 24 0
BBX 24 24 0 -3
BITMAP
1F3E00
1F3E00
0F3C00
03F000
7FFF80
7DEF80
1FFE00
1FFE00
01E000
01EFC0
01FFF0
007FF0
0070F0
0070F0
0070F0
0070F0
0070F0
0070F0
0070F0
0070F0
0070F0
000000
000000
000000
ENDCHAR
STARTCHAR Xu
ENCODING 5025
SWIDTH 144 0
DWIDTH 24 0
BBX 24 24 0 -3
BITMAP
7C7C00
7C7C00
1C7000
0FE000
FFFE00
FBBE00
7FFC00
7FFC00
038000
03BF80
03FFC0
01FFC0
01E1FF
01E1FF
01E1C7
01E1C0
01E1C0
01E1C0
01E1C0
01E1C0
01E1C0
000000
000000
000000
ENDCHAR
STARTCHAR Xi
ENCODING 5026
SWIDTH 144 0
DWIDTH 24 0
BBX 24 24 0 -3
BITMAP
7C7C00
7C7C00
1C7000
0FE000
FFFE00
FBBE00
7FFC00
7FFC00
038000
03BF80
03FFC0
01FFC0
01E1C0
01E1C0
01E1C0
01E1C0
01E1C0
01E1C0
01E1C7
01E1FF
01E1FF
000000
000000
000000
ENDCHAR
STARTCHAR Xa
ENCODING 5027
SWIDTH 144 0
DWIDTH 24 0
BBX 24 24 0 -3
BITMAP
1F3E00
1F3E00
0F3C00
03F000
7FFF80
7DEF80
1FFE00
1FFE00
01E000
01EFC0
01FFF0
007FF0
0070F0
0070F0
0070F0
0070F0
0070F0
0070F0
0000F0
0000F0
0000F0
000000
000000
000000
ENDCHAR
STARTCHAR  XE
ENCODING 5028
SWIDTH 144 0
DWIDTH 24 0
BBX 24 24 0 -3
BITMAP
7C7C00
7C7C00
1C7000
0FE000
FFFE00
FBBE00
7FFC00
7FFC00
038000
03BF80
03FFC0
01FFC0
01E1C0
01E1C0
01E1C0
01E1C0
01E1FE
01E1FE
01E1C7
01E1FF
01E1FE
000000
000000
000000
ENDCHAR
STARTCHAR X
ENCODING 5029
SWIDTH 144 0
DWIDTH 24 0
BBX 24 24 0 -3
BITMAP
7C7C00
7C7C00
1C7000
0FE000
FFFE00
FBBE00
7FFC00
7FFC00
038000
03FFC0
03FFF0
007FF0
0070F0
0070F0
0070F0
007CF0
007CF0
003CF0
003CF0
003CF0
003CF0
000000
000000
000000
ENDCHAR
STARTCHAR Xo
ENCODING 5030
SWIDTH 144 0
DWIDTH 24 0
BBX 24 24 0 -3
BITMAP
1F3E00
1F3E00
0F3C00
03F000
7FFF80
7DEF80
1FFE00
1FFFC0
01E1C0
01EFF0
01FFF0
007EF0
0070F0
0070F0
0070F0
0070F0
0070F0
0070F0
007000
007000
007000
000000
000000
000000
ENDCHAR
STARTCHAR mWE
ENCODING 5032
SWIDTH 144 0
DWIDTH 24 0
BBX 24 24 0 -3
BITMAP
000000
000000
000000
0FFFF0
1FFFF0
1FFFF0
786C30
786C30
606C30
61B030
7FBFF0
7FBFF0
1F0FF0
1F0FF0
0000C0
0000C0
0001F8
0001F8
00019E
000FFE
000FF8
003C00
003C00
003000
ENDCHAR
STARTCHAR bWE
ENCODING 5033
SWIDTH 144 0
DWIDTH 24 0
BBX 24 24 0 -3
BITMAP
000000
000000
000000
000000
01F000
01F000
03FC00
0FFE00
0F0E00
0F0E00
0F0E00
0F0E00
0F0E00
0F0E00
0F0E00
0F0E00
0F0E00
0F0E00
0F0FF0
0F0FF8
0F0E38
007FF0
01FFF0
01E000
ENDCHAR
STARTCHAR GWE
ENCODING 5034
SWIDTH 144 0
DWIDTH 24 0
BBX 24 24 0 -3
BITMAP
0F0780
0FFF80
03FE00
000000
03FC00
03FC00
0F0E00
0F0E00
0F0E00
000E00
000E00
000E00
000E00
003E00
003C00
003C00
003C00
003C00
003FC0
003FF0
003CF0
01FFC0
03FFC0
038000
ENDCHAR
STARTCHAR fWE
ENCODING 5035
SWIDTH 144 0
DWIDTH 24 0
BBX 24 24 0 -6
BITMAP
000000
003C00
003C00
003C00
007C00
007000
01E000
03E000
038000
0FF000
0FF0C0
0F30C0
0F3FC0
0FFFC0
0FFEC0
007000
007000
007000
007E00
01FF80
01E780
0FFE00
1FFE00
1C0000
ENDCHAR
STARTCHAR pWE
ENCODING 5036
SWIDTH 144 0
DWIDTH 24 0
BBX 24 24 0 -3
BITMAP
000000
000000
000000
0381C0
03FFC0
03FFC0
0FFFF0
0FFFF0
0F3CF0
003C00
003C00
003C00
003C00
003C00
003C00
003C00
003FC0
003FC0
003CF0
01FFF0
01FFC0
038000
038000
000000
ENDCHAR
STARTCHAR `ge/g2e
ENCODING 5040
SWIDTH 144 0
DWIDTH 24 0
BBX 24 24 0 -3
BITMAP
038E00
03FE00
01FC00
007000
03FC00
03FC00
0F0E00
0F0E00
0F0E00
000E00
000E00
000E00
000E00
003E00
003C00
003C00
003C00
003C00
003C00
003C00
003C00
000000
000000
000000
ENDCHAR
STARTCHAR `gu/g2u
ENCODING 5041
SWIDTH 144 0
DWIDTH 24 0
BBX 24 24 0 -3
BITMAP
0F3C00
0FFC00
03F000
01E000
0FF000
0FF000
1C3C00
1C3C00
1C3C00
003C00
003C00
003C00
003C00
007FF0
007FF0
0070F0
0070F0
007000
007000
007000
007000
000000
000000
000000
ENDCHAR
STARTCHAR `gi/g2i
ENCODING 5042
SWIDTH 144 0
DWIDTH 24 0
BBX 24 24 0 -3
BITMAP
038E00
03FE00
01FC00
007000
03FC00
03FC00
0F0E00
0F0E00
0F0E00
000E00
000E00
000E00
000E00
003E00
003C00
003C00
003C00
003C00
003CF0
003FF0
003FF0
000000
000000
000000
ENDCHAR
STARTCHAR `ga/g2a
ENCODING 5043
SWIDTH 144 0
DWIDTH 24 0
BBX 24 24 0 -3
BITMAP
01E780
01FF80
007E00
003C00
01FE00
01FE00
03FF80
03FF80
038780
000780
000780
000780
000780
000F80
000E00
003E00
01FE00
01FC00
03E000
03E000
038000
000000
000000
000000
ENDCHAR
STARTCHAR `gE/g2E
ENCODING 5044
SWIDTH 144 0
DWIDTH 24 0
BBX 24 24 0 -3
BITMAP
038E00
03FE00
01FC00
007000
03FC00
03FC00
0F0E00
0F0E00
0F0E00
000E00
000E00
000E00
000E00
003E00
003C00
003C00
003FC0
003FC0
003CF0
003FF0
003FC0
000000
000000
000000
ENDCHAR
STARTCHAR `g/g2
ENCODING 5045
SWIDTH 144 0
DWIDTH 24 0
BBX 24 24 0 -3
BITMAP
0071C0
007FC0
003F80
000E00
03FF80
03FF80
0F3DC0
0FFDC0
03F1C0
0001C0
0001C0
0001C0
000780
000780
000780
000780
000780
000780
000780
000780
000780
000000
000000
000000
ENDCHAR
STARTCHAR `go/g2o
ENCODING 5046
SWIDTH 144 0
DWIDTH 24 0
BBX 24 24 0 -3
BITMAP
000000
01EE00
01EE00
007C00
007C00
003000
003000
01FE00
01FE00
038780
038780
038780
000780
000780
000600
000E00
000E00
000E00
000E00
000E00
000E00
000000
000000
000000
ENDCHAR
STARTCHAR mWu/mW
ENCODING 5048
SWIDTH 144 0
DWIDTH 24 0
BBX 24 24 0 -3
BITMAP
000000
000000
000000
7FFE00
7FFF98
7FFF98
E36198
E361FF
C361FF
C36183
C37F83
C37F80
FF3E00
FF3E00
7F0000
030000
0F0000
0F0000
1C0000
7C0000
780000
000000
000000
000000
ENDCHAR
STARTCHAR bWu/bW
ENCODING 5049
SWIDTH 144 0
DWIDTH 24 0
BBX 24 24 0 -3
BITMAP
000000
000000
000000
000000
03E000
03E000
0FF000
1FFDC0
1C3DC0
1C3DC0
1C3FF8
1C3FF8
1C3C38
1C3C38
1C3C00
1C3C00
1C3C00
1C3C00
1C3C00
1C3C00
1C3C00
000000
000000
000000
ENDCHAR
STARTCHAR GWu/GW
ENCODING 5050
SWIDTH 144 0
DWIDTH 24 0
BBX 24 24 0 -3
BITMAP
1C0E00
1FFE00
0FFC00
000000
0FF000
0FF000
1C3DC0
1C3DC0
1C3DC0
003FF8
003FF8
003C38
003C00
007C00
007C00
007000
007000
007000
007000
007000
007000
000000
000000
000000
ENDCHAR
STARTCHAR fWu/fW
ENCODING 5051
SWIDTH 144 0
DWIDTH 24 0
BBX 24 24 0 -3
BITMAP
000000
000000
000000
000000
000E00
000E00
0006F0
000EF0
000EF0
003FFE
007FFE
00701E
01E000
03F000
03F000
0F3C00
0F3C30
0F0C30
03FFF0
03FFF0
007FB0
000000
000000
000000
ENDCHAR
STARTCHAR pWu/pW
ENCODING 5052
SWIDTH 144 0
DWIDTH 24 0
BBX 24 24 0 -3
BITMAP
000000
000000
000000
0381C0
03FFC0
03FFC0
0FFFF0
0FFFF0
0F3CF0
003C00
003DC0
003DC0
003DC0
003FF8
003FF8
003C38
003C38
003C00
003C00
003C00
003C00
000000
000000
000000
ENDCHAR
STARTCHAR Ornament
ENCODING 65008
SWIDTH 144 0
DWIDTH 24 0
BBX 24 24 0 -3
BITMAP
000000
000000
000000
1C3C38
1F3CF8
0F3CF0
0381C0
03E7C0
01E780
007E00
1C7E38
1C3C38
1C7E38
1DFFB8
01E780
0381C0
0F81F0
0F00F0
1C3C38
1C3C38
183C18
000000
000000
000000
ENDCHAR
STARTCHAR Eritrea/Ethiopia
ENCODING 65009
SWIDTH 144 0
DWIDTH 24 0
BBX 24 24 0 -3
BITMAP
000000
000000
000000
007000
01F000
01F000
01BC00
03BE00
038E00
0F0780
0F0780
0F0780
1C0600
1C07F8
1C07F8
0F00F8
0F81F8
0381C0
01FF80
01FF80
007E00
000000
000000
000000
ENDCHAR
STARTCHAR Inverted-Eritrea/Ethiopia
ENCODING 65010
SWIDTH 144 0
DWIDTH 24 0
BBX 24 24 0 -3
BITMAP
000000
000000
000000
007000
007000
007000
01FC00
03FE00
03FE00
03FF80
0FFF80
0FFF80
1FFE00
1FFFF8
1FFFF8
0FFFF8
0FFFF8
03FFC0
01FF80
01FF80
007E00
000000
000000
000000
ENDCHAR
STARTCHAR Africa
ENCODING 65011
SWIDTH 144 0
DWIDTH 24 0
BBX 24 24 0 -3
BITMAP
000000
000000
000000
03FC00
0FFE00
0FFE00
1F0780
1F07D8
1C07D8
1C01F8
1FE1F8
0FE0F0
0071C0
0071C0
007180
007780
007780
003780
003E00
003E00
003E00
000000
000000
000000
ENDCHAR
STARTCHAR Inverted-Africa
ENCODING 65012
SWIDTH 144 0
DWIDTH 24 0
BBX 24 24 0 -3
BITMAP
000000
000000
000000
03FE00
0FFE00
0FFE00
1FFF80
1FFFD8
1FFFD8
1FFFF8
1FFFF8
01FFF0
007FC0
007FC0
007F80
007F80
007F80
007F80
003E00
003E00
003C00
000000
000000
000000
ENDCHAR
STARTCHAR wWe
ENCODING 65013
SWIDTH 144 0
DWIDTH 24 0
BBX 24 24 0 -3
BITMAP
000000
000000
000000
03FFC0
0FFFF0
0FBDF0
1C3CF0
1C3CF0
1C3CF0
1C70F0
1F7DF0
1F7DC0
0FFF80
0FFF80
007000
007FC0
01FFF0
01F6F0
01E7C0
01E7C0
01E000
000000
000000
000000
ENDCHAR
STARTCHAR wWi
ENCODING 65014
SWIDTH 144 0
DWIDTH 24 0
BBX 24 24 0 -3
BITMAP
000000
000000
000000
03FFC0
0FFFF0
0FBDF0
1C3CF0
1C3CF0
1C3CF0
1C71F0
1F7FF0
1F7F80
0FFEF0
0FFEF0
0070F0
007FF0
01FFF8
01F038
01E038
01E038
01E000
000000
000000
000000
ENDCHAR
STARTCHAR wWa
ENCODING 65015
SWIDTH 144 0
DWIDTH 24 0
BBX 24 24 0 -3
BITMAP
000000
000000
000000
000000
03FFC0
03FFC0
0FBDF0
1FBDF0
1C3CF0
1C3CF0
1C7CF0
1C70F0
1F7DC0
1FFFC0
0FFF80
007000
007000
007000
01F000
01F000
01E000
0FFC00
1FFE00
1C0E00
ENDCHAR
STARTCHAR wWE
ENCODING 65016
SWIDTH 144 0
DWIDTH 24 0
BBX 24 24 0 -3
BITMAP
000000
000000
000000
000000
03FFC0
03FFC0
0FBDF0
1FBDF0
1C3CF0
1C3CF0
1C7CF0
1C70F0
1F7DC0
1FFFC0
0FFF80
007000
007000
007000
01FE00
01FF80
01E780
0FFE00
1FFE00
1C0000
ENDCHAR
STARTCHAR wWu/wW
ENCODING 65017
SWIDTH 144 0
DWIDTH 24 0
BBX 24 24 0 -3
BITMAP
000000
000000
000000
1FFE00
7FFF80
7DEF80
E1E780
E1E7B8
E1E7B8
E387B8
FBEFFF
FBEFFF
7FFC07
7FFC07
038000
038000
0F8000
0F8000
0F0000
0F0000
0F0000
000000
000000
000000
ENDCHAR
STARTCHAR Ethiopic-Gemination
ENCODING 65018
SWIDTH 144 0
DWIDTH 24 0
BBX 24 5 0 21
BITMAP
0381C0
0381C0
0381C0
0381C0
000000
ENDCHAR
STARTCHAR Ethiopic-Sarcasm-Mark
ENCODING 65019
SWIDTH 144 0
DWIDTH 12 0
BBX 24 24 0 -3
BITMAP
000000
000000
000000
003C00
003C00
003C00
000000
003C00
003C00
003C00
003C00
003C00
003C00
003C00
003C00
003C00
003C00
003C00
003C00
003C00
003C00
000000
000000
000000
ENDCHAR
STARTCHAR Ethiopic-Point
ENCODING 65020
SWIDTH 144 0
DWIDTH 24 0
BBX 24 24 0 -3
BITMAP
000000
000000
000000
000000
000000
000000
000000
000000
000000
000000
000000
000000
000000
000000
000000
000000
003C00
003C00
007E00
007E00
003C00
000000
000000
000000
ENDCHAR
STARTCHAR Ethiopic-Left-Quote
ENCODING 65021
SWIDTH 144 0
DWIDTH 24 0
BBX 24 24 0 -3
BITMAP
000000
000000
000000
000000
000000
000000
000000
000000
000000
007780
01FF80
01EE00
03BC00
03FE00
01EE00
007780
007780
000000
000000
000000
000000
000000
000000
000000
ENDCHAR
STARTCHAR Ethiopic-Right-Quote
ENCODING 65022
SWIDTH 144 0
DWIDTH 24 0
BBX 24 24 0 -3
BITMAP
000000
000000
000000
000000
000000
000000
000000
000000
000000
03BC00
03FE00
01EE00
007780
01FF80
01EE00
03BC00
03BC00
000000
000000
000000
000000
000000
000000
000000
ENDCHAR
STARTCHAR Ethiopic-Sylized-Question-Mark
ENCODING 65023
SWIDTH 144 0
DWIDTH 24 0
BBX 24 24 0 -3
BITMAP
000000
000000
000000
007E00
007F80
000780
0001C0
0001C0
0001C0
0001C0
000FC0
000FC0
000F80
000F80
000C00
000C00
000C00
000000
003C00
003C00
003C00
000000
000000
000000
ENDCHAR
ENDFONT
